<?xml version="1.0" encoding="UTF-8"?>
<svg version="1.1" xmlns="http://www.w3.org/2000/svg" width="188" height="167">
<path d="M0 0 C7.70131226 5.46759831 12.0274017 11.08220511 15 20 C15.1464714 21.55266653 15.24694074 23.10995662 15.31640625 24.66796875 C15.35830078 25.56064453 15.40019531 26.45332031 15.44335938 27.37304688 C15.48267578 28.30181641 15.52199219 29.23058594 15.5625 30.1875 C15.60568359 31.12787109 15.64886719 32.06824219 15.69335938 33.03710938 C15.79938665 35.35792854 15.90145029 37.67885325 16 40 C17.9490625 40.185625 17.9490625 40.185625 19.9375 40.375 C22.15234375 40.5859375 22.15234375 40.5859375 24 41 C25.34531059 43.69062118 25.13456332 45.78231331 25.14526367 48.79492188 C25.15164352 50.0095813 25.15802338 51.22424072 25.16459656 52.47570801 C25.16570938 53.79341187 25.1668222 55.11111572 25.16796875 56.46875 C25.17118076 57.82873571 25.17454478 59.18872108 25.17805481 60.54870605 C25.184046 63.40015464 25.18589467 66.25157291 25.18530273 69.10302734 C25.185201 72.76180621 25.19886501 76.42039151 25.21607494 80.07912445 C25.22717657 82.88776549 25.22922253 85.69635941 25.22869301 88.50502014 C25.23045141 90.51145868 25.24130197 92.51788252 25.25224304 94.52429199 C25.24916641 95.73895142 25.24608978 96.95361084 25.24291992 98.20507812 C25.24434494 99.27826294 25.24576996 100.35144775 25.24723816 101.45715332 C25 104 25 104 23 106 C20.57723655 106.203378 18.26826281 106.28325341 15.84399414 106.2746582 C14.73887733 106.2823246 14.73887733 106.2823246 13.61143494 106.29014587 C11.16926004 106.30407758 8.72736623 106.30308242 6.28515625 106.30078125 C4.59126174 106.30466631 2.89736821 106.30900059 1.20347595 106.31376648 C-2.34997717 106.32123645 -5.90333094 106.32093189 -9.45678711 106.31567383 C-14.01458981 106.30987911 -18.57198615 106.3268063 -23.12972164 106.3500185 C-26.62897629 106.36473795 -30.12813268 106.36562998 -33.6274128 106.36250877 C-35.30796679 106.36302292 -36.98852615 106.36827815 -38.66905022 106.37832069 C-41.01783655 106.39063302 -43.3658264 106.38392531 -45.71459961 106.37231445 C-46.41132782 106.37995819 -47.10805603 106.38760193 -47.82589722 106.39547729 C-50.55971008 106.36554825 -52.56328813 106.2636585 -54.93206787 104.83354187 C-56.43986194 102.24479725 -56.37413725 100.28086099 -56.37231445 97.29101562 C-56.37854324 96.11970093 -56.38477203 94.94838623 -56.39118958 93.74157715 C-56.38197983 92.47591919 -56.37277008 91.21026123 -56.36328125 89.90625 C-56.36377975 88.60804321 -56.36427826 87.30983643 -56.36479187 85.97229004 C-56.36470219 83.22506082 -56.35428138 80.47812531 -56.33618164 77.73095703 C-56.31349428 74.21014328 -56.31295067 70.68975863 -56.31969929 67.16889191 C-56.32384487 63.81046232 -56.31186672 60.45216481 -56.30078125 57.09375 C-56.30169266 55.82809204 -56.30260406 54.56243408 -56.30354309 53.25842285 C-56.29401108 52.08710815 -56.28447906 50.91579346 -56.2746582 49.70898438 C-56.27005081 48.67656616 -56.26544342 47.64414795 -56.26069641 46.58044434 C-56 44 -56 44 -54 41 C-50.375 40.3125 -50.375 40.3125 -47 40 C-46.97421875 38.74445312 -46.9484375 37.48890625 -46.921875 36.1953125 C-46.56318544 24.22345069 -46.06043364 13.85909067 -37 5 C-26.24223472 -3.42792911 -12.68593115 -6.29317778 0 0 Z M-32.6640625 12.69140625 C-38.18308466 20.42126478 -38.45122601 30.8250712 -38 40 C-37.02810605 41.19090955 -37.02810605 41.19090955 -35.24729919 41.12025452 C-34.48562943 41.11803391 -33.72395966 41.11581329 -32.93920898 41.11352539 C-31.64798378 41.11341209 -31.64798378 41.11341209 -30.33067322 41.11329651 C-28.92755638 41.10555458 -28.92755638 41.10555458 -27.49609375 41.09765625 C-26.06657127 41.09553383 -26.06657127 41.09553383 -24.60816956 41.09336853 C-21.55124835 41.08775152 -18.49439923 41.07519616 -15.4375 41.0625 C-13.37044376 41.05748719 -11.30338638 41.05292391 -9.23632812 41.04882812 C-4.15752412 41.03777656 0.9212257 41.02050055 6 41 C6.23976563 39.14375 6.23976563 39.14375 6.484375 37.25 C6.57428711 36.55390625 6.66419922 35.8578125 6.75683594 35.140625 C7.69503223 26.88148333 6.35552508 20.63636033 2 13.5 C1.34 12.675 0.68 11.85 0 11 C-0.99 11 -1.98 11 -3 11 C-3 10.34 -3 9.68 -3 9 C-12.92189863 3.70832073 -24.50330321 4.39654998 -32.6640625 12.69140625 Z M-21.4375 62.5625 C-23.56667558 65.88401391 -23.42255137 68.12661246 -23 72 C-22.01 73.485 -22.01 73.485 -21 75 C-20.34 75 -19.68 75 -19 75 C-19.02320313 75.91523437 -19.04640625 76.83046875 -19.0703125 77.7734375 C-19.08835938 78.96195313 -19.10640625 80.15046875 -19.125 81.375 C-19.15980469 83.15003906 -19.15980469 83.15003906 -19.1953125 84.9609375 C-19.32866229 88.11153817 -19.32866229 88.11153817 -17 90 C-14.21762345 89.59471099 -14.21762345 89.59471099 -12 88 C-11.75520869 84.96277443 -11.61591635 81.92659394 -11.4765625 78.8828125 C-10.94477843 75.66595478 -10.30682062 75.1130719 -8 73 C-7.36584347 67.42963883 -7.36584347 67.42963883 -9.5625 62.5 C-13.70853855 59.94859166 -17.33330556 59.93160613 -21.4375 62.5625 Z " fill="#FDFCFD" transform="translate(113,25)"/>
</svg>
