<?xml version="1.0" encoding="UTF-8"?>
<svg version="1.1" xmlns="http://www.w3.org/2000/svg" width="500" height="500">
<path d="M0 0 C3.63 0 7.26 0 11 0 C11.00410889 1.19488037 11.00821777 2.38976074 11.01245117 3.62084961 C11.03435688 8.08856309 11.088764 12.55541012 11.15258789 17.02270508 C11.17566861 18.94970342 11.19014013 20.87682613 11.19555664 22.80395508 C11.20491925 25.58753073 11.24606697 28.36917686 11.29296875 31.15234375 C11.2890361 32.00271713 11.28510345 32.85309052 11.28105164 33.72923279 C11.57950322 46.19067671 20.32929117 54.60932445 28.88671875 62.78515625 C34.43155925 68.12657874 34.43155925 68.12657874 41 72 C41.64066406 71.41992188 42.28132813 70.83984375 42.94140625 70.2421875 C44.23884766 69.07042969 44.23884766 69.07042969 45.5625 67.875 C46.47902344 67.04484375 47.39554687 66.2146875 48.33984375 65.359375 C50.39416079 63.53733757 52.47176792 61.82360535 54.625 60.125 C61.74858482 54.04800821 68.00147971 45.25214856 69.29995728 35.82144165 C69.43778044 33.51294333 69.49301205 31.21874594 69.51171875 28.90625 C69.53864555 27.65805481 69.53864555 27.65805481 69.56611633 26.38464355 C69.61980627 23.75647886 69.65398071 21.12849135 69.6875 18.5 C69.72070969 16.70570472 69.75520267 14.91143271 69.79101562 13.1171875 C69.87550824 8.74492044 69.94251459 4.37270214 70 0 C73.3 0 76.6 0 80 0 C80.14958846 6.04644231 80.25779655 12.09178113 80.32958984 18.13964844 C80.35955241 20.19192292 80.40033783 22.24407166 80.45263672 24.29589844 C80.80247663 38.38552952 80.4627929 48.24865938 71.25390625 59.55078125 C70.36574219 60.46214844 69.47757812 61.37351563 68.5625 62.3125 C68.08441895 62.80903076 67.60633789 63.30556152 67.11376953 63.81713867 C65.75444418 65.22306028 64.37776749 66.61214637 63 68 C62.35675781 68.680625 61.71351562 69.36125 61.05078125 70.0625 C58.66371331 72.5552889 56.59567793 74.66139403 53.57421875 76.37890625 C50.72124963 78.07826422 48.95179189 79.28917793 47 82 C45.87804347 87.58623542 46.48710849 93.37085736 47 99 C66.28129208 84.76616658 86.48160462 69.84565698 94 46 C91.69 46 89.38 46 87 46 C85.73973202 43.47946405 86.08125555 42.1457902 86.4375 39.375 C86.59025391 38.14910156 86.59025391 38.14910156 86.74609375 36.8984375 C86.82988281 36.27195313 86.91367188 35.64546875 87 35 C89.41700987 35.14129287 91.83350429 35.28786487 94.25 35.4375 C94.93191406 35.47681641 95.61382812 35.51613281 96.31640625 35.55664062 C99.64448041 35.76666472 102.80255402 36.01934002 106 37 C107.16694008 51.87848606 99.29927967 65.51859226 90.0703125 76.58984375 C89.38710937 77.38519531 88.70390625 78.18054688 88 79 C87.33742188 79.78503906 86.67484375 80.57007813 85.9921875 81.37890625 C81.67019729 86.3873302 77.13154093 90.83007662 72 95 C71.08863281 95.74894531 70.17726563 96.49789062 69.23828125 97.26953125 C62.93251833 102.29357072 56.39095901 106.92759277 49.625 111.3125 C48.87621582 111.82329102 48.12743164 112.33408203 47.35595703 112.86035156 C45.2453288 114.18719337 43.37567768 115.24329416 41 116 C37.93643244 115.24436559 36.53090395 114.65657286 34 113 C33.33274902 112.59950439 32.66549805 112.19900879 31.97802734 111.78637695 C29.73885227 110.40903163 27.55521504 108.96879619 25.375 107.5 C24.58593262 106.96955078 23.79686523 106.43910156 22.98388672 105.89257812 C15.89098391 101.04976809 9.30928979 95.82114358 3 90 C2.48211914 89.52594727 1.96423828 89.05189453 1.43066406 88.56347656 C-11.84962798 76.26873495 -24.10187935 60.58849186 -26 42 C-26.02340593 40.33349769 -26.02933818 38.66640843 -26 37 C-19.6221448 35.82706111 -13.49678438 34.70469162 -7 35 C-6.67 38.63 -6.34 42.26 -6 46 C-8.31 46 -10.62 46 -13 46 C-5.03843057 70.07609218 13.61007731 85.28785803 34 99 C35.33313418 88.88495137 35.33313418 88.88495137 32.34765625 79.62890625 C29.98306649 77.89598194 27.53758894 76.4661625 25 75 C14.56900777 66.44370223 2.85025491 55.80484188 0 42 C-0.08312165 40.56538424 -0.11785375 39.12744495 -0.11352539 37.69042969 C-0.11344986 36.84986023 -0.11337433 36.00929077 -0.11329651 35.14324951 C-0.10813522 34.24519592 -0.10297394 33.34714233 -0.09765625 32.421875 C-0.0962413 31.4953009 -0.09482635 30.56872681 -0.09336853 29.61407471 C-0.08777824 26.65935008 -0.0752275 23.70470167 -0.0625 20.75 C-0.05748375 18.74479276 -0.05292106 16.73958433 -0.04882812 14.734375 C-0.03781199 9.82288737 -0.020554 4.9114566 0 0 Z " fill="#F19529" transform="translate(63,165)"/>
<path d="M0 0 C43.56 0 87.12 0 132 0 C132 6.6 132 13.2 132 20 C128.37 20 124.74 20 121 20 C121 17.03 121 14.06 121 11 C84.7 11 48.4 11 11 11 C11 13.97 11 16.94 11 20 C7.37 20 3.74 20 0 20 C0 13.4 0 6.8 0 0 Z " fill="#EE952C" transform="translate(37,123)"/>
<path d="M0 0 C43.56 0 87.12 0 132 0 C132 3.3 132 6.6 132 10 C88.44 10 44.88 10 0 10 C0 6.7 0 3.4 0 0 Z " fill="#EB9631" transform="translate(37,149)"/>
<path d="M0 0 C3.3 0 6.6 0 10 0 C10.02505615 0.74161377 10.0501123 1.48322754 10.07592773 2.24731445 C10.19186132 5.60255328 10.31459985 8.95750944 10.4375 12.3125 C10.47681641 13.47974609 10.51613281 14.64699219 10.55664062 15.84960938 C10.61948242 17.52700195 10.61948242 17.52700195 10.68359375 19.23828125 C10.72025146 20.26993408 10.75690918 21.30158691 10.79467773 22.36450195 C10.90161242 25.10748258 10.90161242 25.10748258 12 28 C13.65 28 15.3 28 17 28 C18.03714522 24.88856433 18.20031861 22.50531904 18.31640625 19.23828125 C18.35830078 18.12001953 18.40019531 17.00175781 18.44335938 15.84960938 C18.48267578 14.68236328 18.52199219 13.51511719 18.5625 12.3125 C18.60568359 11.13365234 18.64886719 9.95480469 18.69335938 8.74023438 C18.79951176 5.82694117 18.90156242 2.91356243 19 0 C22.3 0 25.6 0 29 0 C29.08735463 4.54154478 29.14051247 9.08287232 29.1875 13.625 C29.21263672 14.91019531 29.23777344 16.19539063 29.26367188 17.51953125 C29.27333984 18.76347656 29.28300781 20.00742188 29.29296875 21.2890625 C29.3086792 22.43068848 29.32438965 23.57231445 29.34057617 24.74853516 C28.81585547 29.75801925 27.11114491 32.97015838 23.4375 36.375 C18.82199668 38.5568743 15.02164592 38.67771807 10 38 C5.77532196 36.46375344 3.30351951 34.8796118 1 31 C-0.11911712 27.64264863 -0.11365586 25.11794614 -0.09765625 21.58203125 C-0.09443359 20.32841797 -0.09121094 19.07480469 -0.08789062 17.78320312 C-0.07951172 16.47287109 -0.07113281 15.16253906 -0.0625 13.8125 C-0.05748317 12.47721519 -0.05292059 11.14192859 -0.04882812 9.80664062 C-0.03702695 6.53771527 -0.02056297 3.26888009 0 0 Z " fill="#EF9327" transform="translate(356,177)"/>
<path d="M0 0 C2.83595558 3.45632086 2.77878961 6.01329211 3 10.4375 C1.54257537 10.51846803 0.08387193 10.57667774 -1.375 10.625 C-2.18710937 10.65980469 -2.99921875 10.69460937 -3.8359375 10.73046875 C-4.55007813 10.63378906 -5.26421875 10.53710938 -6 10.4375 C-6.66 9.4475 -7.32 8.4575 -8 7.4375 C-8.99 7.4375 -9.98 7.4375 -11 7.4375 C-10.87232069 9.37319219 -10.87232069 9.37319219 -10 11.4375 C-7.79642194 12.86951697 -7.79642194 12.86951697 -5.125 13.9375 C-1.35138411 15.56576575 0.95211957 16.79755768 3 20.4375 C3.66383347 23.83964656 3.60167963 27.0261421 3 30.4375 C0.47323961 33.78375024 -1.03933542 35.11727847 -5 36.4375 C-9.57926639 36.84109636 -13.66998677 37.00346308 -17.9375 35.1875 C-22.10017701 31.65553163 -23.51057793 28.94349834 -24 23.4375 C-23 22.4375 -23 22.4375 -20.71484375 22.33984375 C-19.34005859 22.35724609 -19.34005859 22.35724609 -17.9375 22.375 C-17.01839844 22.38402344 -16.09929687 22.39304688 -15.15234375 22.40234375 C-14.44207031 22.41394531 -13.73179687 22.42554688 -13 22.4375 C-12.67 24.0875 -12.34 25.7375 -12 27.4375 C-10.68 27.1075 -9.36 26.7775 -8 26.4375 C-8.12822608 24.50457372 -8.12822608 24.50457372 -9 22.4375 C-11.20071587 20.96913594 -11.20071587 20.96913594 -13.875 19.875 C-19.8359716 17.22471379 -19.8359716 17.22471379 -22 14.4375 C-23.52544248 7.68196903 -23.52544248 7.68196903 -21.8125 3.625 C-15.97433081 -3.42106627 -8.00220472 -4.16781496 0 0 Z " fill="#EB952F" transform="translate(411,178.5625)"/>
<path d="M0 0 C2.99999885 3.27272602 4.0625 5.82203475 4.0625 10.25 C2.43831255 10.33090971 0.81298255 10.38914995 -0.8125 10.4375 C-1.71742188 10.47230469 -2.62234375 10.50710937 -3.5546875 10.54296875 C-4.73417969 10.39794922 -4.73417969 10.39794922 -5.9375 10.25 C-6.5975 9.26 -7.2575 8.27 -7.9375 7.25 C-8.9275 7.25 -9.9175 7.25 -10.9375 7.25 C-10.9375 8.24 -10.9375 9.23 -10.9375 10.25 C-10.18984375 10.62511719 -9.4421875 11.00023437 -8.671875 11.38671875 C1.7968716 16.82663027 1.7968716 16.82663027 4.0625 21.25 C4.69280076 25.58331775 4.36477045 27.67784522 2.3125 31.5625 C-0.35041155 34.74319991 -2.18077111 36.02678527 -6.3046875 36.55078125 C-11.55044967 36.57529416 -15.54981094 36.46050419 -19.9375 33.25 C-22.63079622 29.12027913 -22.9375 27.31378365 -22.9375 22.25 C-19.6375 22.25 -16.3375 22.25 -12.9375 22.25 C-12.6075 23.9 -12.2775 25.55 -11.9375 27.25 C-10.2875 27.25 -8.6375 27.25 -6.9375 27.25 C-6.9375 25.93 -6.9375 24.61 -6.9375 23.25 C-7.85273438 22.77949219 -8.76796875 22.30898437 -9.7109375 21.82421875 C-10.91166738 21.19571171 -12.1121768 20.56678337 -13.3125 19.9375 C-13.91578125 19.62876953 -14.5190625 19.32003906 -15.140625 19.00195312 C-18.32008325 17.32390572 -19.90287552 16.30193672 -21.9375 13.25 C-22.48303487 10.18351979 -22.46607517 7.31897215 -21.9375 4.25 C-16.32411223 -3.28797786 -8.03100822 -4.78443043 0 0 Z " fill="#FDFDFD" transform="translate(222.9375,178.75)"/>
<path d="M0 0 C4.79030261 2.92740715 6.7982267 5.91860374 8.65234375 11.03515625 C9 13 9 13 8 17 C1.4 17 -5.2 17 -12 17 C-11.34 17.99 -10.68 18.98 -10 20 C-6.45812169 20.33338596 -6.45812169 20.33338596 -3 20 C-2.67 19.67 -2.34 19.34 -2 19 C-0.31391034 18.92794489 1.37500659 18.91613932 3.0625 18.9375 C3.98160156 18.94652344 4.90070313 18.95554688 5.84765625 18.96484375 C6.55792969 18.97644531 7.26820313 18.98804688 8 19 C3.81152097 27.22182921 3.81152097 27.22182921 -1 29 C-5.58651094 29.53736349 -9.5748793 29.58863681 -13.875 27.8125 C-17.22682704 24.95358871 -20.67438868 21.62090422 -21.23828125 17.08203125 C-21.42139576 11.48258225 -20.88750086 7.23792348 -17 3 C-11.73145079 -1.126832 -6.36834446 -2.00484918 0 0 Z M-9 7 C-10.485 8.98 -10.485 8.98 -12 11 C-8.37 11 -4.74 11 -1 11 C-1.33 10.01 -1.66 9.02 -2 8 C-4.31 7.67 -6.62 7.34 -9 7 Z " fill="#FDFDFD" transform="translate(328,186)"/>
<path d="M0 0 C3.20082347 3.65808397 4.82504749 7.20028492 5.625 12 C5.295 12.99 4.965 13.98 4.625 15 C-1.975 15 -8.575 15 -15.375 15 C-14.715 15.99 -14.055 16.98 -13.375 18 C-9.83312169 18.33338596 -9.83312169 18.33338596 -6.375 18 C-6.045 17.67 -5.715 17.34 -5.375 17 C-3.68891034 16.92794489 -1.99999341 16.91613932 -0.3125 16.9375 C0.60660156 16.94652344 1.52570313 16.95554688 2.47265625 16.96484375 C3.18292969 16.97644531 3.89320313 16.98804688 4.625 17 C0.43652097 25.22182921 0.43652097 25.22182921 -4.375 27 C-8.96151094 27.53736349 -12.9498793 27.58863681 -17.25 25.8125 C-20.60182704 22.95358871 -24.04938868 19.62090422 -24.61328125 15.08203125 C-24.80813577 9.123585 -23.87198523 5.85692393 -20.375 1 C-14.5034968 -4.50453425 -6.61544192 -3.92026188 0 0 Z M-12.375 5 C-13.86 6.98 -13.86 6.98 -15.375 9 C-11.745 9 -8.115 9 -4.375 9 C-4.705 8.01 -5.035 7.02 -5.375 6 C-7.685 5.67 -9.995 5.34 -12.375 5 Z " fill="#FDFDFD" transform="translate(252.375,188)"/>
<path d="M0 0 C4.44686592 2.39180944 6.19128778 5.83901487 7.8125 10.5 C7.8125 10.83 7.8125 11.16 7.8125 11.5 C6.18831255 11.58090971 4.56298255 11.63914995 2.9375 11.6875 C2.03257812 11.72230469 1.12765625 11.75710937 0.1953125 11.79296875 C-0.98417969 11.64794922 -0.98417969 11.64794922 -2.1875 11.5 C-2.8475 10.51 -3.5075 9.52 -4.1875 8.5 C-7.1875 8.08333333 -7.1875 8.08333333 -10.1875 8.5 C-12.48577312 10.37938172 -12.48577312 10.37938172 -12.5 13.4375 C-12.40722348 16.42778146 -12.40722348 16.42778146 -11.0625 18.4375 C-9.09208998 19.77875165 -9.09208998 19.77875165 -6.0625 19.3125 C-5.11375 19.044375 -4.165 18.77625 -3.1875 18.5 C-2.8575 17.84 -2.5275 17.18 -2.1875 16.5 C1.1125 16.5 4.4125 16.5 7.8125 16.5 C5.68006701 22.33613239 3.57251443 25.61999279 -2.1875 28.5 C-7.84169928 29.02038648 -12.6244295 29.25782276 -17.1875 25.5 C-20.44477599 22.60464356 -21.95985358 20.66823888 -22.42578125 16.23046875 C-22.59515685 10.42712587 -22.17704872 7.04365271 -18.1875 2.5 C-12.76857861 -2.26208244 -6.6016161 -2.79583369 0 0 Z " fill="#FDFDFD" transform="translate(281.1875,186.5)"/>
<path d="M0 0 C2.69207751 1.68254844 3.65216939 2.83732147 4.55859375 5.8671875 C5.53393919 11.19639455 5.53393919 11.19639455 3.453125 14.328125 C1.51535757 17.89111672 2.05778806 19.8800536 2.8125 23.8125 C3.204375 25.854375 3.59625 27.89625 4 30 C-2.6 30 -9.2 30 -16 30 C-15.34 27.03 -14.68 24.06 -14 21 C-14.2974033 18.20440901 -14.75690904 16.48618192 -16 14 C-16.42071592 10.94079426 -16.48514117 8.0532254 -16 5 C-11.10092142 -1.18830979 -7.36816163 -1.65193659 0 0 Z " fill="#F19529" transform="translate(109,175)"/>
<path d="M0 0 C2.97 0 5.94 0 9 0 C9 2.97 9 5.94 9 9 C10.32 9 11.64 9 13 9 C13 11.31 13 13.62 13 16 C11.68 16 10.36 16 9 16 C9 22.93 9 29.86 9 37 C6.03 37 3.06 37 0 37 C0 30.07 0 23.14 0 16 C-1.32 16 -2.64 16 -4 16 C-4 13.69 -4 11.38 -4 9 C-2.68 9 -1.36 9 0 9 C0 6.03 0 3.06 0 0 Z " fill="#FCFCFB" transform="translate(341,177)"/>
<path d="M0 0 C1.98 0 3.96 0 6 0 C7.13921351 4.58838737 7.19502049 9.04043366 7.23828125 13.73828125 C7.25038887 14.99767769 7.25038887 14.99767769 7.26274109 16.28251648 C7.27653439 18.0551042 7.28727767 19.82771796 7.29516602 21.6003418 C7.30668819 23.403156 7.32714384 25.20593602 7.35668945 27.00854492 C7.39956037 29.62702377 7.41556023 32.24449414 7.42578125 34.86328125 C7.44328934 35.65938309 7.46079742 36.45548492 7.47883606 37.27571106 C7.45692883 42.99719285 6.21046325 48.78953675 2 53 C0.00041636 53.04080783 -2.00045254 53.04254356 -4 53 C-4.08153933 51.41753293 -4.13943557 49.83383727 -4.1875 48.25 C-4.22230469 47.36828125 -4.25710937 46.4865625 -4.29296875 45.578125 C-3.94483516 42.51454939 -2.94565271 41.33282289 -1 39 C0.25282725 35.24151826 0.12381835 31.74509081 0.09765625 27.83203125 C0.09553383 26.63981209 0.09553383 26.63981209 0.09336853 25.42350769 C0.08777378 22.88646675 0.07522228 20.34951425 0.0625 17.8125 C0.05748432 16.09179815 0.05292153 14.37109492 0.04882812 12.65039062 C0.03780607 8.4335597 0.02054506 4.21679484 0 0 Z " fill="#F39424" transform="translate(135,167)"/>
<path d="M0 0 C3.63 0 7.26 0 11 0 C11 9.9 11 19.8 11 30 C7 31 7 31 0 31 C0 20.77 0 10.54 0 0 Z " fill="#F29525" transform="translate(37,165)"/>
<path d="M0 0 C3.63 0 7.26 0 11 0 C11 10.23 11 20.46 11 31 C7.37 30.67 3.74 30.34 0 30 C0 20.1 0 10.2 0 0 Z " fill="#ED9630" transform="translate(158,165)"/>
<path d="M0 0 C0 2.97 0 5.94 0 9 C-0.804375 9.28875 -1.60875 9.5775 -2.4375 9.875 C-5.1326468 10.73262568 -5.1326468 10.73262568 -6 13 C-6.2322646 15.71262116 -6.41936235 18.40773126 -6.5625 21.125 C-6.60568359 21.87910156 -6.64886719 22.63320312 -6.69335938 23.41015625 C-6.7994832 25.27321888 -6.90025001 27.13658524 -7 29 C-9.97 29 -12.94 29 -16 29 C-16 19.76 -16 10.52 -16 1 C-12.7 1 -9.4 1 -6 1 C-3 0 -3 0 0 0 Z " fill="#FDFDFD" transform="translate(307,185)"/>
<path d="M0 0 C3.63 0 7.26 0 11 0 C11.00410889 1.19488037 11.00821777 2.38976074 11.01245117 3.62084961 C11.03435688 8.08856309 11.088764 12.55541012 11.15258789 17.02270508 C11.17566861 18.94970342 11.19014013 20.87682613 11.19555664 22.80395508 C11.20491925 25.58753073 11.24606697 28.36917686 11.29296875 31.15234375 C11.2890361 32.00271713 11.28510345 32.85309052 11.28105164 33.72923279 C11.48071447 42.06588529 15.26233878 48.10299147 20.3125 54.5625 C20.82425781 55.22378906 21.33601563 55.88507813 21.86328125 56.56640625 C22.23839844 57.03949219 22.61351563 57.51257813 23 58 C21.824375 58.433125 21.824375 58.433125 20.625 58.875 C17.16709055 60.35696119 16.09421157 61.85868265 14 65 C12.5125035 63.25707481 11.03527508 61.50538246 9.5625 59.75 C8.73878906 58.77546875 7.91507812 57.8009375 7.06640625 56.796875 C5.25150943 54.3404173 4.38842559 52.96615903 4 50 C4.78375 49.9175 5.5675 49.835 6.375 49.75 C9.11740113 49.26227992 9.11740113 49.26227992 10.375 47.0625 C11.26871235 44.964604 11.26871235 44.964604 10 43 C9.91288225 39.93757679 9.8845154 36.89813535 9.90234375 33.8359375 C9.9037587 32.92872955 9.90517365 32.02152161 9.90663147 31.08682251 C9.91223904 28.18284845 9.92479282 25.27895085 9.9375 22.375 C9.94251402 20.40885528 9.9470771 18.44270935 9.95117188 16.4765625 C9.96221094 11.6510121 9.97948065 6.82551903 10 2 C7.03 1.67 4.06 1.34 1 1 C1 14.53 1 28.06 1 42 C0.67 42 0.34 42 0 42 C0 28.14 0 14.28 0 0 Z " fill="#E69739" transform="translate(63,165)"/>
<path d="M0 0 C3.3 0 6.6 0 10 0 C10 14.52 10 29.04 10 44 C9.67 44 9.34 44 9 44 C8.505 23.21 8.505 23.21 8 2 C6.02 2 4.04 2 2 2 C2.05124023 3.16047852 2.10248047 4.32095703 2.15527344 5.51660156 C2.34002693 9.82469133 2.49758651 14.13342189 2.64697266 18.44287109 C2.71540524 20.30741577 2.79119805 22.1717055 2.87451172 24.03564453 C2.99304188 26.71613988 3.08501244 29.39643971 3.171875 32.078125 C3.21439392 32.91055725 3.25691284 33.7429895 3.30072021 34.60064697 C3.45303373 40.45030125 3.45303373 40.45030125 1.01367188 43.41015625 C0.34916016 43.93480469 -0.31535156 44.45945313 -1 45 C-1.47922359 47.35524661 -1.47922359 47.35524661 -1.25 49.75 C-1.21390625 50.54921875 -1.1778125 51.3484375 -1.140625 52.171875 C-1.09421875 52.77515625 -1.0478125 53.3784375 -1 54 C0.65 54.33 2.3 54.66 4 55 C2.35 57.31 0.7 59.62 -1 62 C-2.9451 59.08235 -3.45276317 57.37462715 -4 54 C-4.9075 54.763125 -5.815 55.52625 -6.75 56.3125 C-9.114556 58.28483107 -11.51305942 60.18262034 -14 62 C-14.66 61.67 -15.32 61.34 -16 61 C-15.11248047 60.07380859 -15.11248047 60.07380859 -14.20703125 59.12890625 C-5.29226851 49.57425842 -0.95335628 42.38039829 -0.68359375 29.296875 C-0.66281265 28.45908508 -0.64203156 27.62129517 -0.62062073 26.75811768 C-0.5553745 24.08882644 -0.49635642 21.41943902 -0.4375 18.75 C-0.39429106 16.93749016 -0.35067601 15.12498995 -0.30664062 13.3125 C-0.19971871 8.87509791 -0.09838134 4.43759932 0 0 Z M-4 50 C-3 52 -3 52 -3 52 Z " fill="#E19944" transform="translate(133,165)"/>
<path d="M0 0 C2.41700987 0.14129287 4.83350429 0.28786487 7.25 0.4375 C8.27287109 0.49647461 8.27287109 0.49647461 9.31640625 0.55664062 C12.64448041 0.76666472 15.80255402 1.01934002 19 2 C18.67 2.66 18.34 3.32 18 4 C11.83381819 4.40214229 6.82254243 2.96818336 1 1 C1 3.97 1 6.94 1 10 C3.31 10 5.62 10 8 10 C9.125 16.625 9.125 16.625 8 20 C8.66 20.33 9.32 20.66 10 21 C9.34 21 8.68 21 8 21 C8 21.99 8 22.98 8 24 C9.65 24 11.3 24 13 24 C13.66 21.36 14.32 18.72 15 16 C15.66 16 16.32 16 17 16 C14.13042293 26.12791907 9.12749844 35.22454715 2 43 C1.34 42.67 0.68 42.34 0 42 C0 41.34 0 40.68 0 40 C0.99 40 1.98 40 3 40 C3.66 38.02 4.32 36.04 5 34 C4.01 33.67 3.02 33.34 2 33 C2 32.34 2 31.68 2 31 C0.35 31.33 -1.3 31.66 -3 32 C-1.81993248 28.67435518 -0.29872707 25.68431578 1.4375 22.625 C3.58442536 18.83294544 5.36760916 15.03801945 7 11 C4.69 11 2.38 11 0 11 C-1.26026798 8.47946405 -0.91874445 7.1457902 -0.5625 4.375 C-0.46066406 3.55773437 -0.35882813 2.74046875 -0.25390625 1.8984375 C-0.17011719 1.27195313 -0.08632812 0.64546875 0 0 Z " fill="#EF962F" transform="translate(150,200)"/>
<path d="M0 0 C2.24469451 0.91190715 3.42203265 1.99783754 5 3.8125 C4.01 5.7925 3.02 7.7725 2 9.8125 C1.01 9.8125 0.02 9.8125 -1 9.8125 C-0.773125 10.410625 -0.54625 11.00875 -0.3125 11.625 C0 13.8125 0 13.8125 -1.125 15.5625 C-3.53854651 17.17153101 -5.15673536 17.04303497 -8 16.8125 C-8 17.8025 -8 18.7925 -8 19.8125 C-10.4375 19.0625 -10.4375 19.0625 -13 17.8125 C-13.8125 15.6875 -13.8125 15.6875 -14 13.8125 C-10.77208445 11.6605563 -9.71599191 11.61163557 -6 11.8125 C-6.20625 11.27625 -6.4125 10.74 -6.625 10.1875 C-7.14375462 6.90205409 -6.31320703 4.83287618 -5 1.8125 C-2 -0.1875 -2 -0.1875 0 0 Z " fill="#F39424" transform="translate(151,230.1875)"/>
<path d="M0 0 C5 0 5 0 6.75 1.5 C7.1625 1.995 7.575 2.49 8 3 C8.33 3 8.66 3 9 3 C9 5.97 9 8.94 9 12 C8.01 12.33 7.02 12.66 6 13 C6 13.99 6 14.98 6 16 C1.09873048 18.45063476 -5.75242023 16.87459663 -11 16 C-11 15.34 -11 14.68 -11 14 C-7 13 -3 12 1 11 C0.67 7.37 0.34 3.74 0 0 Z " fill="#F49322" transform="translate(404,196)"/>
<path d="M0 0 C2.70928109 2.70928109 2.93781616 4.85897215 3.2890625 8.6015625 C2.82631044 12.44115388 0.84029579 14.28944732 -2.01953125 16.73828125 C-4 18 -4 18 -7.25 18.75 C-10 18 -10 18 -11.875 15.5 C-12.24625 14.675 -12.6175 13.85 -13 13 C-12.34 12.67 -11.68 12.34 -11 12 C-11 11.34 -11 10.68 -11 10 C-7.53846154 7 -7.53846154 7 -5 7 C-4.67 6.34 -4.34 5.68 -4 5 C-2.68133728 3.321702 -1.34919532 1.65385233 0 0 Z " fill="#F29424" transform="translate(128,217)"/>
<path d="M0 0 C36.63 0 73.26 0 111 0 C111 0.33 111 0.66 111 1 C74.7 1 38.4 1 1 1 C1 3.97 1 6.94 1 10 C-2.63 10 -6.26 10 -10 10 C-10 8.68 -10 7.36 -10 6 C-9.34 6 -8.68 6 -8 6 C-8 6.66 -8 7.32 -8 8 C-5.36 8 -2.72 8 0 8 C0 5.36 0 2.72 0 0 Z " fill="#DB9642" transform="translate(47,133)"/>
<path d="M0 0 C1.32 0 2.64 0 4 0 C6 3 6 3 6 6 C6.99 6 7.98 6 9 6 C7.56 11.64 7.56 11.64 5.25 13.125 C1.60198249 12.92233236 -0.25786686 11.32485201 -3 9 C-4.375 5.75 -4.375 5.75 -5 3 C-4.360625 2.690625 -3.72125 2.38125 -3.0625 2.0625 C-1.06389179 1.1654837 -1.06389179 1.1654837 0 0 Z " fill="#F29427" transform="translate(82,223)"/>
<path d="M0 0 C3.63 0 7.26 0 11 0 C11 9.9 11 19.8 11 30 C9.68 29.67 8.36 29.34 7 29 C7.99 29 8.98 29 10 29 C10 19.76 10 10.52 10 1 C7.36 1.33 4.72 1.66 2 2 C2 10.25 2 18.5 2 27 C1.34 27 0.68 27 0 27 C0 18.09 0 9.18 0 0 Z " fill="#E3964A" transform="translate(37,165)"/>
<path d="M0 0 C3.3 0 6.6 0 10 0 C10.02505615 0.73637695 10.0501123 1.47275391 10.07592773 2.23144531 C10.19204273 5.57113378 10.31469918 8.91055097 10.4375 12.25 C10.47681641 13.40886719 10.51613281 14.56773437 10.55664062 15.76171875 C10.61948242 17.43427734 10.61948242 17.43427734 10.68359375 19.140625 C10.72025146 20.16704102 10.75690918 21.19345703 10.79467773 22.25097656 C10.97282128 24.63610887 11.32777363 26.71299499 12 29 C11.34 29 10.68 29 10 29 C8.6691089 26.33821779 8.88731007 24.31260604 8.90234375 21.3359375 C8.90556641 20.21445313 8.90878906 19.09296875 8.91210938 17.9375 C8.92048828 16.761875 8.92886719 15.58625 8.9375 14.375 C8.94201172 13.19164062 8.94652344 12.00828125 8.95117188 10.7890625 C8.96298533 7.85932493 8.97945742 4.92968728 9 2 C6.69 2.33 4.38 2.66 2 3 C1.67 11.25 1.34 19.5 1 28 C0.67 28 0.34 28 0 28 C0 18.76 0 9.52 0 0 Z " fill="#E59B44" transform="translate(356,177)"/>
<path d="M0 0 C2.41700987 0.14129287 4.83350429 0.28786487 7.25 0.4375 C8.27287109 0.49647461 8.27287109 0.49647461 9.31640625 0.55664062 C12.64448041 0.76666472 15.80255402 1.01934002 19 2 C18.67 2.66 18.34 3.32 18 4 C11.83381819 4.40214229 6.82254243 2.96818336 1 1 C1 3.97 1 6.94 1 10 C3.31 10 5.62 10 8 10 C7.49202991 14.3177458 6.80317221 18.03302114 5 22 C4.34 21.67 3.68 21.34 3 21 C4.32 17.7 5.64 14.4 7 11 C4.69 11 2.38 11 0 11 C-1.26026798 8.47946405 -0.91874445 7.1457902 -0.5625 4.375 C-0.46066406 3.55773437 -0.35882813 2.74046875 -0.25390625 1.8984375 C-0.17011719 1.27195313 -0.08632812 0.64546875 0 0 Z " fill="#E19947" transform="translate(150,200)"/>
<path d="M0 0 C2.79024052 4.18536078 3.10154594 8.05850265 4 13 C-2.6 13 -9.2 13 -16 13 C-15.67 11.35 -15.34 9.7 -15 8 C-14.67 8.99 -14.34 9.98 -14 11 C-8.72 11 -3.44 11 2 11 C2 9.68 2 8.36 2 7 C1.01 6.67 0.02 6.34 -1 6 C-0.67 4.02 -0.34 2.04 0 0 Z " fill="#DF9B47" transform="translate(109,192)"/>
<path d="M0 0 C1.15941038 3.47823115 0.70820884 5.45895578 0 9 C-2.31 9.66 -4.62 10.32 -7 11 C-6.67 12.65 -6.34 14.3 -6 16 C-6.66 16.33 -7.32 16.66 -8 17 C-8 16.34 -8 15.68 -8 15 C-9.98 15.33 -11.96 15.66 -14 16 C-9.40525596 10.60117576 -4.72323727 5.28666913 0 0 Z " fill="#EA9935" transform="translate(145,233)"/>
<path d="M0 0 C1.875 0.5625 1.875 0.5625 4 2 C5.25 5.625 5.25 5.625 6 9 C5.01 9.495 5.01 9.495 4 10 C4 9.01 4 8.02 4 7 C3.34 7 2.68 7 2 7 C1.67 7.66 1.34 8.32 1 9 C-0.98 8.01 -2.96 7.02 -5 6 C-5 5.01 -5 4.02 -5 3 C-4.34 3 -3.68 3 -3 3 C-1.37485532 1.54166642 -1.37485532 1.54166642 0 0 Z " fill="#F09425" transform="translate(394,187)"/>
<path d="M0 0 C0.33 0 0.66 0 1 0 C1.09945752 5.12282759 1.17174409 10.24508354 1.21972656 15.36865234 C1.23974522 17.10866089 1.26696886 18.84860299 1.30175781 20.58837891 C1.35070952 23.10075346 1.37306587 25.61223275 1.390625 28.125 C1.41127014 28.89303955 1.43191528 29.6610791 1.45318604 30.45239258 C1.45556173 36.27253975 -0.10722903 39.95516758 -3 45 C-3.33 45 -3.66 45 -4 45 C-4 43.35 -4 41.7 -4 40 C-3.01 39.505 -3.01 39.505 -2 39 C-0.75526468 35.26579403 -0.76790215 31.72634762 -0.68359375 27.83203125 C-0.66281265 27.03721848 -0.64203156 26.2424057 -0.62062073 25.42350769 C-0.55527913 22.88659237 -0.49631192 20.34957427 -0.4375 17.8125 C-0.39430014 16.09178628 -0.35068537 14.37108292 -0.30664062 12.65039062 C-0.19961352 8.43369887 -0.09830276 4.2169038 0 0 Z " fill="#E89834" transform="translate(141,174)"/>
<path d="M0 0 C0.33 0 0.66 0 1 0 C1.78316087 8.96284102 1.78316087 8.96284102 -1.3125 13.0625 C-4.95930882 15.69159473 -7.61112436 16.15484468 -12 16.1875 C-13.299375 16.20876953 -13.299375 16.20876953 -14.625 16.23046875 C-17 16 -17 16 -20 14 C-11.585 13.505 -11.585 13.505 -3 13 C-3 12.01 -3 11.02 -3 10 C-2.34 9.67 -1.68 9.34 -1 9 C-0.53348793 6.87423218 -0.53348793 6.87423218 -0.375 4.4375 C-0.30023438 3.61121094 -0.22546875 2.78492188 -0.1484375 1.93359375 C-0.09945313 1.29550781 -0.05046875 0.65742188 0 0 Z " fill="#E29640" transform="translate(413,199)"/>
<path d="M0 0 C2.97 0.495 2.97 0.495 6 1 C0.24626244 6.90515171 0.24626244 6.90515171 -3.20703125 7.16796875 C-11.81408242 7.23248937 -11.81408242 7.23248937 -16 5 C-13.51447065 4.17149022 -12.15267335 3.96476769 -9.5625 4.5625 C-6.41114225 5.10053669 -4.89484316 4.21888133 -2 3 C-1.01 3.33 -0.02 3.66 1 4 C0.67 2.68 0.34 1.36 0 0 Z " fill="#E39938" transform="translate(377,208)"/>
<path d="M0 0 C0.66 0 1.32 0 2 0 C2 0.66 2 1.32 2 2 C2.66 2.33 3.32 2.66 4 3 C3.34 3.66 2.68 4.32 2 5 C1.69324768 7.89967757 1.48826629 10.71783178 1.375 13.625 C1.33632812 14.42679687 1.29765625 15.22859375 1.2578125 16.0546875 C1.16346069 18.03607556 1.08063785 20.01800645 1 22 C0.67 22 0.34 22 0 22 C-0.86286752 18.27460372 -1.13474793 14.82118675 -1.125 11 C-1.12757812 9.989375 -1.13015625 8.97875 -1.1328125 7.9375 C-1.00826727 5.18285256 -0.62110865 2.68161197 0 0 Z " fill="#E1993E" transform="translate(108,242)"/>
<path d="M0 0 C5.75 0.875 5.75 0.875 8 2 C8.92188461 4.76565382 9.11785222 6.38283702 9.09765625 9.23046875 C9.09443359 10.03291016 9.09121094 10.83535156 9.08789062 11.66210938 C9.07532227 12.91217773 9.07532227 12.91217773 9.0625 14.1875 C9.05798828 15.03248047 9.05347656 15.87746094 9.04882812 16.74804688 C9.03705403 18.83206155 9.0191189 20.91603977 9 23 C8.67 23 8.34 23 8 23 C8.00902344 21.83082031 8.01804687 20.66164063 8.02734375 19.45703125 C8.29319943 11.1803274 8.29319943 11.1803274 5.375 3.79296875 C3.27337471 2.30828798 3.27337471 2.30828798 0 1 C0 0.67 0 0.34 0 0 Z " fill="#DF9335" transform="translate(90,241)"/>
<path d="M0 0 C1.4540625 0.0309375 1.4540625 0.0309375 2.9375 0.0625 C3.2675 1.7125 3.5975 3.3625 3.9375 5.0625 C1.2975 4.7325 -1.3425 4.4025 -4.0625 4.0625 C-3.7325 5.0525 -3.4025 6.0425 -3.0625 7.0625 C-4.0525 7.3925 -5.0425 7.7225 -6.0625 8.0625 C-3.88526119 0.07929104 -3.88526119 0.07929104 0 0 Z " fill="#F59421" transform="translate(400.0625,177.9375)"/>
<path d="M0 0 C0.721875 0.144375 1.44375 0.28875 2.1875 0.4375 C3.5796875 0.7159375 3.5796875 0.7159375 5 1 C6.66666667 1.33333333 8.33333333 1.66666667 10 2 C10 4.66666667 10 7.33333333 10 10 C8.33037631 8.52417192 6.6643694 7.04425109 5 5.5625 C4.071875 4.73878906 3.14375 3.91507813 2.1875 3.06640625 C1.465625 2.38449219 0.74375 1.70257813 0 1 C0 0.67 0 0.34 0 0 Z " fill="#ED982E" transform="translate(64,252)"/>
<path d="M0 0 C0.75 1.625 0.75 1.625 1 4 C-1.54677978 8.88981718 -4.38699178 11.27413151 -9 14 C-9.66 13.67 -10.32 13.34 -11 13 C-10.06027344 11.96939453 -10.06027344 11.96939453 -9.1015625 10.91796875 C-8.28429687 10.01691406 -7.46703125 9.11585938 -6.625 8.1875 C-5.81289062 7.29417969 -5.00078125 6.40085938 -4.1640625 5.48046875 C-1.90927093 3.00367326 -1.90927093 3.00367326 0 0 Z " fill="#E4973B" transform="translate(128,213)"/>
<path d="M0 0 C0.66 0 1.32 0 2 0 C2.33 1.98 2.66 3.96 3 6 C2.01 6.495 2.01 6.495 1 7 C1 6.34 1 5.68 1 5 C-1.31 5.66 -3.62 6.32 -6 7 C-6.66 6.34 -7.32 5.68 -8 5 C-7.05125 4.731875 -6.1025 4.46375 -5.125 4.1875 C-1.74732727 3.25013412 -1.74732727 3.25013412 0 0 Z " fill="#F29320" transform="translate(135,248)"/>
<path d="M0 0 C0 1.66666667 0 3.33333333 0 5 C-0.66 5.66 -1.32 6.32 -2 7 C-2.33 7.99 -2.66 8.98 -3 10 C-3.66 10 -4.32 10 -5 10 C-5 9.34 -5 8.68 -5 8 C-6.65 8.33 -8.3 8.66 -10 9 C-6.83047153 5.73991357 -3.60062011 2.77762123 0 0 Z " fill="#E89736" transform="translate(116,227)"/>
<path d="M0 0 C1.37478516 0.01740234 1.37478516 0.01740234 2.77734375 0.03515625 C3.69644531 0.04417969 4.61554688 0.05320313 5.5625 0.0625 C6.27277344 0.07410156 6.98304688 0.08570313 7.71484375 0.09765625 C6.4140625 1.6171875 6.4140625 1.6171875 4.71484375 3.09765625 C1.52734375 2.78515625 1.52734375 2.78515625 -1.28515625 2.09765625 C-1.28515625 3.41765625 -1.28515625 4.73765625 -1.28515625 6.09765625 C-0.62515625 6.09765625 0.03484375 6.09765625 0.71484375 6.09765625 C0.38484375 7.41765625 0.05484375 8.73765625 -0.28515625 10.09765625 C-2.41777749 6.89872439 -2.87537173 4.86767382 -3.28515625 1.09765625 C-2.28515625 0.09765625 -2.28515625 0.09765625 0 0 Z " fill="#E2993E" transform="translate(390.28515625,200.90234375)"/>
<path d="M0 0 C0.99 0.33 1.98 0.66 3 1 C2.814375 1.5775 2.62875 2.155 2.4375 2.75 C1.95976454 5.20692525 2.24270636 6.64397534 3 9 C2.01 9.33 1.02 9.66 0 10 C-0.66 9.67 -1.32 9.34 -2 9 C-1.814375 8.05125 -1.62875 7.1025 -1.4375 6.125 C-0.71313368 3.10131207 -0.71313368 3.10131207 -2 1 C-1.34 0.67 -0.68 0.34 0 0 Z " fill="#F49122" transform="translate(58,234)"/>
<path d="M0 0 C0.66 0 1.32 0 2 0 C2.185625 1.2065625 2.185625 1.2065625 2.375 2.4375 C2.58125 3.283125 2.7875 4.12875 3 5 C3.66 5.33 4.32 5.66 5 6 C5 6.66 5 7.32 5 8 C5.66 8.33 6.32 8.66 7 9 C6.34 10.32 5.68 11.64 5 13 C3.96679519 11.40377344 2.94877571 9.79770894 1.9375 8.1875 C1.36902344 7.29417969 0.80054688 6.40085938 0.21484375 5.48046875 C-1 3 -1 3 0 0 Z " fill="#EB9934" transform="translate(44,223)"/>
<path d="M0 0 C0.66 0.99 1.32 1.98 2 3 C-0.475 4.485 -0.475 4.485 -3 6 C-3 5.34 -3 4.68 -3 4 C-4.65 4.33 -6.3 4.66 -8 5 C-8 3.68 -8 2.36 -8 1 C-7.05125 1.020625 -6.1025 1.04125 -5.125 1.0625 C-2.09333717 1.22551826 -2.09333717 1.22551826 0 0 Z " fill="#F19220" transform="translate(397,202)"/>
<path d="M0 0 C1.66611905 -0.042721 3.33382885 -0.04063832 5 0 C5.33 0.33 5.66 0.66 6 1 C5.91036938 2.69141656 5.75422324 4.37959602 5.5625 6.0625 C5.46066406 6.98160156 5.35882813 7.90070313 5.25390625 8.84765625 C5.12822266 9.91306641 5.12822266 9.91306641 5 11 C4.67 11 4.34 11 4 11 C3.875 4.25 3.875 4.25 5 2 C4.01 2.66 3.02 3.32 2 4 C1.01 4 0.02 4 -1 4 C-0.67 2.68 -0.34 1.36 0 0 Z " fill="#EE9732" transform="translate(163,203)"/>
<path d="M0 0 C1.44207941 2.88415883 1.09394887 5.41721528 1.0625 8.625 C1.05347656 9.81351563 1.04445313 11.00203125 1.03515625 12.2265625 C1.02355469 13.14179688 1.01195313 14.05703125 1 15 C-1.02185443 13.33557103 -1.92078843 12.47015897 -2.36328125 9.84375 C-2.34652344 9.0703125 -2.32976562 8.296875 -2.3125 7.5 C-2.30863281 6.7265625 -2.30476563 5.953125 -2.30078125 5.15625 C-2 3 -2 3 0 0 Z " fill="#DF9844" transform="translate(95,177)"/>
<path d="M0 0 C2.00293347 3.00440021 2.49271626 4.70993945 3.125 8.1875 C3.37636719 9.53908203 3.37636719 9.53908203 3.6328125 10.91796875 C3.75398438 11.60503906 3.87515625 12.29210937 4 13 C2 11.5625 2 11.5625 0 9 C-0.35442445 5.97175582 -0.23347235 3.03514061 0 0 Z " fill="#E69837" transform="translate(357,199)"/>
<path d="M0 0 C4.67692308 1.47692308 4.67692308 1.47692308 6.3125 4.125 C6.539375 4.74375 6.76625 5.3625 7 6 C6.34 6.66 5.68 7.32 5 8 C4.566875 7.360625 4.13375 6.72125 3.6875 6.0625 C2.08760823 3.73253997 2.08760823 3.73253997 -1 3 C-0.67 2.01 -0.34 1.02 0 0 Z " fill="#E79A34" transform="translate(406,193)"/>
<path d="M0 0 C3.34019306 0.59646305 5.50470633 1.68294159 8 4 C8 4.99 8 5.98 8 7 C6.35 7 4.7 7 3 7 C3.33 6.01 3.66 5.02 4 4 C2.8509288 2.7018576 2.8509288 2.7018576 0 2 C0 1.34 0 0.68 0 0 Z " fill="#E99B3C" transform="translate(405,177)"/>
<path d="M0 0 C1.50539661 0.94983358 3.00420347 1.91011891 4.5 2.875 C5.3353125 3.40867187 6.170625 3.94234375 7.03125 4.4921875 C7.6809375 4.98976563 8.330625 5.48734375 9 6 C9 6.66 9 7.32 9 8 C8.34 8 7.68 8 7 8 C7 7.34 7 6.68 7 6 C6.01 6 5.02 6 4 6 C4 5.34 4 4.68 4 4 C2.02 4 0.04 4 -2 4 C-1.34 3.67 -0.68 3.34 0 3 C0 2.01 0 1.02 0 0 Z " fill="#E8983C" transform="translate(89,259)"/>
<path d="M0 0 C0.33 0.99 0.66 1.98 1 3 C0.67 3.66 0.34 4.32 0 5 C0.66 5.33 1.32 5.66 2 6 C0.68 6.33 -0.64 6.66 -2 7 C-2.12375 6.195625 -2.2475 5.39125 -2.375 4.5625 C-2.684375 3.2940625 -2.684375 3.2940625 -3 2 C-3.66 1.67 -4.32 1.34 -5 1 C-3.35 0.67 -1.7 0.34 0 0 Z " fill="#EC9632" transform="translate(373,205)"/>
<path d="M0 0 C1.12894876 0.93274109 2.25300876 1.87140122 3.375 2.8125 C4.00148438 3.33457031 4.62796875 3.85664063 5.2734375 4.39453125 C7 6 7 6 9 9 C7.68 8.67 6.36 8.34 5 8 C5 7.34 5 6.68 5 6 C4.01 6 3.02 6 2 6 C1.34 4.02 0.68 2.04 0 0 Z " fill="#E59B42" transform="translate(86,223)"/>
<path d="M0 0 C-2.35277269 2.72426311 -4.62496331 3.8141763 -8 5 C-8 4.01 -8 3.02 -8 2 C-4.77208445 -0.1519437 -3.71599191 -0.20086443 0 0 Z " fill="#E7973A" transform="translate(114,274)"/>
<path d="M0 0 C-1.32 1.65 -2.64 3.3 -4 5 C-4.66 4.67 -5.32 4.34 -6 4 C-5.67 3.34 -5.34 2.68 -5 2 C-5.99 1.67 -6.98 1.34 -8 1 C-5.29120665 -0.35439668 -2.99066732 -0.06501451 0 0 Z " fill="#EB9937" transform="translate(123,235)"/>
<path d="M0 0 C1.98 0 3.96 0 6 0 C3.525 3.465 3.525 3.465 1 7 C0.34 5.68 -0.32 4.36 -1 3 C-0.34 3 0.32 3 1 3 C1.33 2.34 1.66 1.68 2 1 C1.34 0.67 0.68 0.34 0 0 Z " fill="#E79B3D" transform="translate(131,220)"/>
<path d="M0 0 C0.88336837 2.4667645 1.1312406 3.63859372 0.22265625 6.140625 C-0.16019531 6.83671875 -0.54304687 7.5328125 -0.9375 8.25 C-1.31777344 8.95640625 -1.69804687 9.6628125 -2.08984375 10.390625 C-2.39019531 10.92171875 -2.69054687 11.4528125 -3 12 C-3.33 12 -3.66 12 -4 12 C-4 10.35 -4 8.7 -4 7 C-3.34 6.67 -2.68 6.34 -2 6 C-1.27306096 4.02111039 -0.60183749 2.02045442 0 0 Z " fill="#E49641" transform="translate(141,207)"/>
<path d="M0 0 C2.3125 0.125 2.3125 0.125 5 1 C6.8125 4.0625 6.8125 4.0625 8 7 C4.2047869 5.50902342 2.38957269 3.24299151 0 0 Z " fill="#E1943F" transform="translate(64,252)"/>
<path d="M0 0 C0.99 0 1.98 0 3 0 C1.55746343 3.36591866 -0.33264727 5.51047079 -3 8 C-3.33 7.01 -3.66 6.02 -4 5 C-3.01 5 -2.02 5 -1 5 C-0.67 3.35 -0.34 1.7 0 0 Z " fill="#EA9A3E" transform="translate(154,235)"/>
<path d="M0 0 C0.33 0.66 0.66 1.32 1 2 C0.0625 4.625 0.0625 4.625 -1 7 C-1.66 7 -2.32 7 -3 7 C-3.33 8.32 -3.66 9.64 -4 11 C-3.38461538 3.49230769 -3.38461538 3.49230769 -1.4375 1 C-0.963125 0.67 -0.48875 0.34 0 0 Z " fill="#E09A42" transform="translate(392,179)"/>
</svg>
