<?xml version="1.0" encoding="UTF-8"?>
<svg version="1.1" xmlns="http://www.w3.org/2000/svg" width="189" height="173">
<path d="M0 0 C2.3125 1.5625 2.3125 1.5625 4 4 C4.23142152 5.35041261 4.43787772 6.70523975 4.625 8.0625 C5.0077068 10.09838358 5.0077068 10.09838358 6 12 C13.57318366 16.43186491 23.4346684 15.36802946 31.89453125 15.2578125 C33.41525059 15.249658 34.93597863 15.24300145 36.45671082 15.23776245 C40.43163803 15.22076704 44.40621502 15.18658104 48.38098145 15.14770508 C54.7586799 15.08815129 61.13655765 15.05454993 67.51444054 15.02193832 C69.73300376 15.00804131 71.95138861 14.98644965 74.1698761 14.96365356 C75.5322762 14.95362796 76.89467748 14.94376222 78.25708008 14.93408203 C80.0338488 14.91717819 80.0338488 14.91717819 81.84651184 14.89993286 C84.6980876 14.99041965 87.2316166 15.33955173 90 16 C89.505 18.475 89.505 18.475 89 21 C87.02 21 85.04 21 83 21 C83.165 22.010625 83.33 23.02125 83.5 24.0625 C84.70886076 33.58227848 84.70886076 33.58227848 83 37 C81.083412 37.02712153 79.1667127 37.04645097 77.25 37.0625 C75.64898437 37.07990234 75.64898437 37.07990234 74.015625 37.09765625 C71.45725082 37.01480735 69.44870838 36.63506222 67 36 C66.67 36.33 66.34 36.66 66 37 C63.5 37.125 63.5 37.125 61 37 C60 36 60 36 59.875 33.3125 C59.99553875 30.11822318 60.44133334 27.14249999 61 24 C61 23.01 61 22.02 61 21 C36.25 20.505 36.25 20.505 11 20 C11 20.66 11 21.32 11 22 C8.69 22.33 6.38 22.66 4 23 C3.97873047 23.90492187 3.97873047 23.90492187 3.95703125 24.828125 C3.71494831 28.88464991 3.50844318 31.33266833 1 34.625 C-3.21431992 36.55656329 -6.59230862 36.31890379 -11 35 C-14.25841577 32.25071169 -14.53137639 29.12388774 -15 25 C-16.093125 24.9175 -17.18625 24.835 -18.3125 24.75 C-22 24 -22 24 -23.9375 22.3125 C-25.33817538 19.26397123 -25.4842732 17.32073048 -25 14 C-23.3125 11.6875 -23.3125 11.6875 -21 10 C-19.7315625 9.814375 -19.7315625 9.814375 -18.4375 9.625 C-17.633125 9.41875 -16.82875 9.2125 -16 9 C-14.31668061 6.13343033 -14.31668061 6.13343033 -13 3 C-9.2416662 -1.54132001 -5.51625132 -1.25809241 0 0 Z M-10 4 C-11.02699061 7.63396678 -11.23967448 10.41871818 -10 14 C-6.78333296 14.21931821 -4.56637697 14.26828383 -1.625 12.875 C0.26399835 11.0248469 0.26399835 11.0248469 0.5 8 C0.28577545 4.92250157 0.28577545 4.92250157 -1.875 3.125 C-5.14477403 1.39394316 -7.02810869 1.89091585 -10 4 Z M-19 13 C-20.36741555 15.25221384 -21.04066478 16.52557758 -20.8125 19.1875 C-20.544375 19.785625 -20.27625 20.38375 -20 21 C-16.95718186 22.37312951 -16.95718186 22.37312951 -13.875 20.75 C-10.72718727 19.25813222 -10.72718727 19.25813222 -10 16 C-13.44069624 13.70620251 -14.72290301 13 -19 13 Z M-9.625 22.25 C-11.23472946 24.29874659 -11.84642045 25.38914764 -12 28 C-10.74801254 30.8334453 -9.80207836 32.51875298 -7.125 34.125 C-4.70250412 34.1829153 -4.70250412 34.1829153 -2.25 31.875 C0.13624 29.23775085 0.13624 29.23775085 0.625 26.375 C0.19752602 23.77892514 0.19752602 23.77892514 -2.3125 22.1875 C-5.25827764 20.88587732 -6.94638457 20.1895266 -9.625 22.25 Z " fill="#D9D7D8" transform="translate(63,65)"/>
<path d="M0 0 C25.08 0 50.16 0 76 0 C76 1.32 76 2.64 76 4 C74.35 4 72.7 4 71 4 C71.165 5.010625 71.33 6.02125 71.5 7.0625 C72.70886076 16.58227848 72.70886076 16.58227848 71 20 C69.083412 20.02712153 67.1667127 20.04645097 65.25 20.0625 C64.18265625 20.07410156 63.1153125 20.08570312 62.015625 20.09765625 C59.45725082 20.01480735 57.44870838 19.63506222 55 19 C54.505 19.495 54.505 19.495 54 20 C51.5 20.125 51.5 20.125 49 20 C48 19 48 19 47.875 16.3125 C47.99553875 13.11822318 48.44133334 10.14249999 49 7 C49 6.01 49 5.02 49 4 C32.67405556 3.10672947 16.3414131 2.52917321 0 2 C0 1.34 0 0.68 0 0 Z " fill="#C8C7C8" transform="translate(75,82)"/>
<path d="M0 0 C0.66 0.99 1.32 1.98 2 3 C1.34 3 0.68 3 0 3 C0.33 3.66 0.66 4.32 1 5 C1.375 8.375 1.375 8.375 1 12 C-1.25 14.4375 -1.25 14.4375 -4 16 C-5.32 16 -6.64 16 -8 16 C-8 17.98 -8 19.96 -8 22 C-8.66 22 -9.32 22 -10 22 C-10 22.66 -10 23.32 -10 24 C-10.66 24.33 -11.32 24.66 -12 25 C-11.67 27.31 -11.34 29.62 -11 32 C-11.99 32.495 -11.99 32.495 -13 33 C-14.25664978 30.09399739 -15 28.20395416 -15 25 C-16.093125 24.9175 -17.18625 24.835 -18.3125 24.75 C-22 24 -22 24 -23.9375 22.3125 C-25.33817538 19.26397123 -25.4842732 17.32073048 -25 14 C-23.3125 11.6875 -23.3125 11.6875 -21 10 C-19.7315625 9.814375 -19.7315625 9.814375 -18.4375 9.625 C-17.633125 9.41875 -16.82875 9.2125 -16 9 C-14.31668061 6.13343033 -14.31668061 6.13343033 -13 3 C-9.235205 -1.5491273 -5.52974932 -1.20649076 0 0 Z M-10 4 C-11.02699061 7.63396678 -11.23967448 10.41871818 -10 14 C-6.78333296 14.21931821 -4.56637697 14.26828383 -1.625 12.875 C0.26399835 11.0248469 0.26399835 11.0248469 0.5 8 C0.28577545 4.92250157 0.28577545 4.92250157 -1.875 3.125 C-5.14477403 1.39394316 -7.02810869 1.89091585 -10 4 Z M-19 13 C-20.36741555 15.25221384 -21.04066478 16.52557758 -20.8125 19.1875 C-20.544375 19.785625 -20.27625 20.38375 -20 21 C-16.95718186 22.37312951 -16.95718186 22.37312951 -13.875 20.75 C-10.72718727 19.25813222 -10.72718727 19.25813222 -10 16 C-13.44069624 13.70620251 -14.72290301 13 -19 13 Z " fill="#A19FA0" transform="translate(63,65)"/>
<path d="M0 0 C25.08 0 50.16 0 76 0 C76 1.32 76 2.64 76 4 C75.35353516 3.83628906 74.70707031 3.67257813 74.04101562 3.50390625 C70.13036329 2.85589835 66.29349724 2.89638008 62.34375 2.9375 C60.59358774 2.94606567 58.84342495 2.95452493 57.09326172 2.96289062 C55.72231354 2.97219604 55.72231354 2.97219604 54.32366943 2.98168945 C36.18749938 3.09929642 18.11858484 2.83344604 0 2 C0 1.34 0 0.68 0 0 Z " fill="#FDFCFD" transform="translate(75,82)"/>
<path d="M0 0 C9.56204418 -0.02318141 19.12407867 -0.04094468 28.68614483 -0.05181217 C33.12630392 -0.0570283 37.56644378 -0.0641029 42.0065918 -0.07543945 C46.29244488 -0.08631344 50.57827946 -0.09228642 54.86414528 -0.09487724 C56.49838362 -0.09672335 58.13262097 -0.10032832 59.76685143 -0.10573006 C62.05772455 -0.11300034 64.34852147 -0.11398841 66.6394043 -0.11352539 C67.94290329 -0.115746 69.24640228 -0.11796661 70.58940125 -0.12025452 C73.53575027 -0.01636901 76.14292648 0.30966149 79 1 C78.67 2.65 78.34 4.3 78 6 C77.505 4.02 77.505 4.02 77 2 C76.32302567 2.16455185 75.64605133 2.3291037 74.94856262 2.49864197 C71.51027667 3.08326997 68.31143438 3.07671263 64.82299805 3.02172852 C64.12001083 3.01212097 63.41702362 3.00251343 62.69273376 2.99261475 C60.38228838 2.95978356 58.07204161 2.91939156 55.76171875 2.87890625 C54.15461414 2.85458958 52.54750229 2.8307468 50.94038391 2.80735779 C46.72024261 2.74467073 42.50023016 2.67556092 38.2802124 2.60510254 C33.97007084 2.53427981 29.65983827 2.46954639 25.34960938 2.40429688 C16.89963877 2.27548289 8.4497946 2.13988192 0 2 C0 1.34 0 0.68 0 0 Z " fill="#747374" transform="translate(74,80)"/>
<path d="M0 0 C0.33 0 0.66 0 1 0 C1.3125 3.25 1.3125 3.25 1 7 C-1.25 9.4375 -1.25 9.4375 -4 11 C-5.32 11 -6.64 11 -8 11 C-8 12.98 -8 14.96 -8 17 C-8.66 17 -9.32 17 -10 17 C-10 17.66 -10 18.32 -10 19 C-10.66 19.33 -11.32 19.66 -12 20 C-11.67 22.31 -11.34 24.62 -11 27 C-11.66 27.33 -12.32 27.66 -13 28 C-14.25664978 25.09399739 -15 23.20395416 -15 20 C-16.11375 19.87625 -17.2275 19.7525 -18.375 19.625 C-22 19 -22 19 -24 17 C-24.125 13.375 -24.125 13.375 -24 10 C-23.34 9.67 -22.68 9.34 -22 9 C-22 10.98 -22 12.96 -22 15 C-19.10351441 15.82756731 -17.27149356 16.06313804 -14.3125 15.375 C-11.76201495 14.20253239 -11.76201495 14.20253239 -11.1875 11.5 C-10 9 -10 9 -8.10546875 8.23046875 C-6.08830127 7.73942448 -4.04415215 7.36267216 -2 7 C-1.34 4.69 -0.68 2.38 0 0 Z " fill="#CDCCCD" transform="translate(63,70)"/>
<path d="M0 0 C0.66 0 1.32 0 2 0 C3.41000664 2.82001327 3.24548451 4.87007255 3 8 C1.5 10.875 1.5 10.875 0 13 C0.66 13 1.32 13 2 13 C2 14.32 2 15.64 2 17 C0.02 17.33 -1.96 17.66 -4 18 C-4 17.34 -4 16.68 -4 16 C-5.32 16.33 -6.64 16.66 -8 17 C-8.33 15.68 -8.66 14.36 -9 13 C-7.6078125 12.566875 -7.6078125 12.566875 -6.1875 12.125 C-2.90208333 11.1125 -2.90208333 11.1125 0 9 C0.36362818 6.79274927 0.36362818 6.79274927 0.1875 4.375 C0.16042969 3.55773437 0.13335937 2.74046875 0.10546875 1.8984375 C0.07066406 1.27195312 0.03585938 0.64546875 0 0 Z " fill="#E3E1E2" transform="translate(63,68)"/>
<path d="M0 0 C0.33 0 0.66 0 1 0 C1.10824843 1.6026782 1.18570645 3.20745748 1.25 4.8125 C1.29640625 5.70582031 1.3428125 6.59914063 1.390625 7.51953125 C1 10 1 10 -0.71875 11.84375 C-3.43554368 13.22075502 -4.77296783 13.16907873 -7.75 12.6875 C-8.54921875 12.56761719 -9.3484375 12.44773437 -10.171875 12.32421875 C-10.77515625 12.21722656 -11.3784375 12.11023438 -12 12 C-13.62950412 7.87831311 -14.26264601 5.29299643 -13 1 C-12.87625 1.5775 -12.7525 2.155 -12.625 2.75 C-11.97144426 5.10280066 -11.34086104 6.95342262 -10 9 C-6.77235957 10.39864419 -5.60022643 9.90005661 -2 9 C-1.34 6.03 -0.68 3.06 0 0 Z " fill="#ACAAAB" transform="translate(64,88)"/>
<path d="M0 0 C5.94 0 11.88 0 18 0 C18 1.32 18 2.64 18 4 C17.32582031 3.83628906 16.65164062 3.67257813 15.95703125 3.50390625 C12.48632094 2.9124642 9.20677876 2.90460954 5.6875 2.9375 C4.43324219 2.94652344 3.17898437 2.95554687 1.88671875 2.96484375 C0.93410156 2.97644531 -0.01851562 2.98804687 -1 3 C-0.67 2.01 -0.34 1.02 0 0 Z " fill="#FBFBFB" transform="translate(133,82)"/>
<path d="M0 0 C0.66 0 1.32 0 2 0 C2 0.66 2 1.32 2 2 C2.92232422 1.87431641 2.92232422 1.87431641 3.86328125 1.74609375 C4.67152344 1.64425781 5.47976562 1.54242188 6.3125 1.4375 C7.11300781 1.33308594 7.91351563 1.22867188 8.73828125 1.12109375 C11 1 11 1 14 2 C13.35546875 2.23460938 12.7109375 2.46921875 12.046875 2.7109375 C9.7922092 3.81161073 9.7922092 3.81161073 9.390625 6.1640625 C9.32101563 7.38222656 9.32101563 7.38222656 9.25 8.625 C9.19328125 9.44226563 9.1365625 10.25953125 9.078125 11.1015625 C9.05234375 11.72804688 9.0265625 12.35453125 9 13 C8.34 12.34 7.68 11.68 7 11 C6.01 12.485 6.01 12.485 5 14 C4.34 13.67 3.68 13.34 3 13 C3.66 12.01 4.32 11.02 5 10 C5.16713569 7.37468476 5.16713569 7.37468476 5 5 C2.69 4.01 0.38 3.02 -2 2 C-1.34 1.34 -0.68 0.68 0 0 Z " fill="#5C595A" transform="translate(57,84)"/>
<path d="M0 0 C0.33 0 0.66 0 1 0 C1.3125 3.25 1.3125 3.25 1 7 C-1.25 9.4375 -1.25 9.4375 -4 11 C-5.32 11 -6.64 11 -8 11 C-8 12.98 -8 14.96 -8 17 C-8.66 17 -9.32 17 -10 17 C-10.33 17.66 -10.66 18.32 -11 19 C-11.33 18.34 -11.66 17.68 -12 17 C-14.31 17.33 -16.62 17.66 -19 18 C-16.61426621 16.10786631 -14.92824652 14.97608217 -12 14 C-11.773125 13.195625 -11.54625 12.39125 -11.3125 11.5625 C-10 9 -10 9 -8.09765625 8.2265625 C-6.08280213 7.73789841 -4.04138542 7.36218128 -2 7 C-1.34 4.69 -0.68 2.38 0 0 Z " fill="#292627" transform="translate(63,70)"/>
<path d="M0 0 C3.39581516 -0.0291544 6.79159786 -0.04685068 10.1875 -0.0625 C11.14720703 -0.07087891 12.10691406 -0.07925781 13.09570312 -0.08789062 C14.02705078 -0.09111328 14.95839844 -0.09433594 15.91796875 -0.09765625 C17.19837036 -0.10551147 17.19837036 -0.10551147 18.50463867 -0.11352539 C21.09246747 0.00420677 23.47661953 0.42892956 26 1 C25.67 2.65 25.34 4.3 25 6 C24.67 4.68 24.34 3.36 24 2 C22.99646484 2.25716797 22.99646484 2.25716797 21.97265625 2.51953125 C18.36146105 3.10320669 15.08622306 2.93026509 11.4375 2.6875 C10.13683594 2.60886719 8.83617187 2.53023438 7.49609375 2.44921875 C4.3468634 2.04456904 2.70724047 1.47698017 0 0 Z " fill="#202020" transform="translate(127,80)"/>
<path d="M0 0 C0.33 0 0.66 0 1 0 C1.125 4.75 1.125 4.75 0 7 C-0.825 7.268125 -1.65 7.53625 -2.5 7.8125 C-3.325 8.204375 -4.15 8.59625 -5 9 C-5.89386164 11.54775306 -5.89386164 11.54775306 -6 14 C-6.33 14 -6.66 14 -7 14 C-7.33 12.35 -7.66 10.7 -8 9 C-8.33 10.65 -8.66 12.3 -9 14 C-9.33 14 -9.66 14 -10 14 C-10.32316568 10.44517748 -10.45553291 8.62424881 -8.3125 5.6875 C-5.80401508 3.85698398 -4.05917167 3.33990796 -1 3 C-0.67 2.01 -0.34 1.02 0 0 Z " fill="#686667" transform="translate(48,71)"/>
<path d="M0 0 C5.28 0 10.56 0 16 0 C16 1.32 16 2.64 16 4 C13.36 4 10.72 4 8 4 C8 3.01 8 2.02 8 1 C5.36 1 2.72 1 0 1 C0 0.67 0 0.34 0 0 Z " fill="#2F2E2F" transform="translate(116,85)"/>
<path d="M0 0 C0.66 0.99 1.32 1.98 2 3 C1.34 3 0.68 3 0 3 C-0.33 3.66 -0.66 4.32 -1 5 C-1.7425 4.649375 -2.485 4.29875 -3.25 3.9375 C-6.1322726 2.95490707 -7.21176345 2.9673198 -10 4 C-10.33 3.01 -10.66 2.02 -11 1 C-7.23465637 -1.56043367 -4.30640227 -1.03672647 0 0 Z " fill="#959394" transform="translate(63,65)"/>
<path d="M0 0 C0.66 0.33 1.32 0.66 2 1 C2.4921875 2.77734375 2.4921875 2.77734375 2.875 4.9375 C3.54769932 8.30230976 3.54769932 8.30230976 6.125 10.5 C6.74375 10.665 7.3625 10.83 8 11 C7.34 11 6.68 11 6 11 C6 11.66 6 12.32 6 13 C3.36 13 0.72 13 -2 13 C-1.67 12.34 -1.34 11.68 -1 11 C0.28687011 7.13938967 0.13757618 4.05849717 0 0 Z " fill="#322F30" transform="translate(65,68)"/>
<path d="M0 0 C0.66 0 1.32 0 2 0 C3.41000664 2.82001327 3.24548451 4.87007255 3 8 C1.5 10.875 1.5 10.875 0 13 C0.66 13 1.32 13 2 13 C1.67 13.99 1.34 14.98 1 16 C-0.32 15.01 -1.64 14.02 -3 13 C-2.505 12.525625 -2.01 12.05125 -1.5 11.5625 C0.70453669 7.79641649 0.24608113 4.26540621 0 0 Z " fill="#EBE9EA" transform="translate(63,68)"/>
<path d="M0 0 C0.66 0.66 1.32 1.32 2 2 C1.34 2 0.68 2 0 2 C0.33 3.65 0.66 5.3 1 7 C0.67 6.34 0.34 5.68 0 5 C-2.31 5 -4.62 5 -7 5 C-7 4.01 -7 3.02 -7 2 C-4.69 1.34 -2.38 0.68 0 0 Z " fill="#1B191A" transform="translate(146,84)"/>
<path d="M0 0 C1.32 0 2.64 0 4 0 C4 1.65 4 3.3 4 5 C5.65 5 7.3 5 9 5 C9 5.33 9 5.66 9 6 C6.03 5.67 3.06 5.34 0 5 C0 3.35 0 1.7 0 0 Z " fill="#242223" transform="translate(137,96)"/>
<path d="M0 0 C0.99 0 1.98 0 3 0 C3.79953138 3.28696233 4.09658936 4.71023192 3 8 C2.01 8 1.02 8 0 8 C0 5.36 0 2.72 0 0 Z " fill="#EFEDEE" transform="translate(71,79)"/>
<path d="M0 0 C2.31 0 4.62 0 7 0 C7.33 0.66 7.66 1.32 8 2 C6.68 2.33 5.36 2.66 4 3 C3.67 5.97 3.34 8.94 3 12 C2.67 12 2.34 12 2 12 C1.93941406 11.30132812 1.87882812 10.60265625 1.81640625 9.8828125 C1.73261719 8.97273438 1.64882812 8.06265625 1.5625 7.125 C1.48128906 6.22007813 1.40007812 5.31515625 1.31640625 4.3828125 C1.13010715 1.98889139 1.13010715 1.98889139 0 0 Z " fill="#494849" transform="translate(63,85)"/>
<path d="M0 0 C1.65 0 3.3 0 5 0 C5 1.65 5 3.3 5 5 C3.35 5 1.7 5 0 5 C0 3.35 0 1.7 0 0 Z " fill="#2F2E2F" transform="translate(129,96)"/>
<path d="M0 0 C0.33 0 0.66 0 1 0 C1 1.98 1 3.96 1 6 C1.99 6.33 2.98 6.66 4 7 C2.02 7.99 2.02 7.99 0 9 C-1 8 -1 8 -1.125 4.5 C-1 1 -1 1 0 0 Z " fill="#C0BEBF" transform="translate(40,79)"/>
<path d="M0 0 C1.98 0 3.96 0 6 0 C6 1.32 6 2.64 6 4 C3.03 3.505 3.03 3.505 0 3 C0 2.01 0 1.02 0 0 Z " fill="#D6D4D5" transform="translate(145,82)"/>
</svg>
