<?xml version="1.0" encoding="UTF-8"?>
<svg version="1.1" xmlns="http://www.w3.org/2000/svg" width="177" height="161">
<path d="M0 0 C2.4375 1.25 2.4375 1.25 4.4375 4.25 C7.52115871 4.5002157 7.52115871 4.5002157 10.4375 4.25 C10.72625 3.610625 11.015 2.97125 11.3125 2.3125 C12.4375 0.25 12.4375 0.25 14.4375 -0.75 C16.53125 -0.734375 16.53125 -0.734375 18.9375 -0.5 C19.7315625 -0.43296875 20.525625 -0.3659375 21.34375 -0.296875 C23.4375 0.25 23.4375 0.25 25.4375 3.25 C25.416875 4.405 25.39625 5.56 25.375 6.75 C25.17052162 10.11215835 25.17052162 10.11215835 26.5 12.25 C28.58853193 13.57854257 28.58853193 13.57854257 31.8125 12.625 C35.4375 12.25 35.4375 12.25 38.375 14.25 C40.91894207 17.95027937 41.17144876 19.84630741 40.4375 24.25 C39.7775 24.724375 39.1175 25.19875 38.4375 25.6875 C36.23562332 27.0331095 36.23562332 27.0331095 36.171875 29.203125 C36.18598353 31.22064445 36.30548393 33.23675498 36.4375 35.25 C38.0875 35.58 39.7375 35.91 41.4375 36.25 C41.35003716 37.68861294 41.24184652 39.12597508 41.125 40.5625 C41.06699219 41.36300781 41.00898438 42.16351563 40.94921875 42.98828125 C40.34182924 45.67285016 39.65977158 46.64934285 37.4375 48.25 C35.10416667 48.25 32.77083333 48.25 30.4375 48.25 C28.33507556 49.10219923 28.33507556 49.10219923 27.4375 51.25 C27.24496606 53.93997425 27.35167971 56.54666092 27.4375 59.25 C26.132261 61.86047801 25.07923426 61.93066423 22.375 62.875 C21.27478516 63.26558594 21.27478516 63.26558594 20.15234375 63.6640625 C19.58644531 63.85742188 19.02054688 64.05078125 18.4375 64.25 C17.756875 63.425 17.07625 62.6 16.375 61.75 C13.60415376 58.96188177 13.60415376 58.96188177 9.8125 58.625 C6.26959372 58.8938204 6.26959372 58.8938204 4.5 61.75 C4.149375 62.575 3.79875 63.4 3.4375 64.25 C-3.77403846 63.76923077 -3.77403846 63.76923077 -7.125 61.5625 C-8.5625 59.25 -8.5625 59.25 -8.3125 56 C-8.065 55.0925 -7.8175 54.185 -7.5625 53.25 C-9.63389596 51.04045494 -9.63389596 51.04045494 -12.5625 49.25 C-16.29973433 49.38986273 -16.29973433 49.38986273 -19.5625 50.25 C-23.5625 44.06818182 -23.5625 44.06818182 -23.5625 40.5 C-22.5625 38.25 -22.5625 38.25 -20.5625 36.8125 C-18.22931292 35.32576173 -18.22931292 35.32576173 -17.8125 32.0625 C-17.73 31.134375 -17.6475 30.20625 -17.5625 29.25 C-18.34625 29.023125 -19.13 28.79625 -19.9375 28.5625 C-22.5625 27.25 -22.5625 27.25 -24 25 C-24.74021748 21.38115901 -24.23704735 19.52628829 -22.5625 16.25 C-19.48281826 14.28242555 -17.89207872 14.2126892 -14.25 14.625 C-13.363125 14.83125 -12.47625 15.0375 -11.5625 15.25 C-11.2325 14.26 -10.9025 13.27 -10.5625 12.25 C-9.9025 12.25 -9.2425 12.25 -8.5625 12.25 C-8.913125 11.5075 -9.26375 10.765 -9.625 10 C-10.62752118 7.0592712 -10.85993523 6.03021834 -9.5625 3.25 C-6.54343261 0.53283935 -4.10666399 -1.20195044 0 0 Z M-5.4375 22.5 C-7.38378014 27.25757367 -7.96299404 31.393164 -6.875 36.4375 C-4.88081006 40.71076416 -2.80082264 43.41485218 1.125 46.0625 C5.37770356 47.58705411 8.970504 47.97177673 13.4375 47.25 C18.4085149 44.71759618 21.93180567 41.26138866 24.4375 36.25 C25.02856487 30.56668392 24.70993416 26.10222997 21.4375 21.25 C16.50010871 16.68291306 12.5474482 15.89242031 6.01171875 15.96875 C1.04533482 16.51135947 -2.21911494 18.63793793 -5.4375 22.5 Z " fill="#EAE9EA" transform="translate(90.5625,36.75)"/>
<path d="M0 0 C1.9375 0.75 1.9375 0.75 3.9375 2.75 C5.2575 2.75 6.5775 2.75 7.9375 2.75 C8.2675 1.76 8.5975 0.77 8.9375 -0.25 C10.9175 -0.25 12.8975 -0.25 14.9375 -0.25 C15.22625 0.884375 15.515 2.01875 15.8125 3.1875 C16.18375 4.363125 16.555 5.53875 16.9375 6.75 C19.2453491 7.90392455 21.40980331 8.28437166 23.9375 8.75 C24.4325 11.72 24.4325 11.72 24.9375 14.75 C23.9475 15.08 22.9575 15.41 21.9375 15.75 C21.9375 17.4 21.9375 19.05 21.9375 20.75 C22.9275 21.08 23.9175 21.41 24.9375 21.75 C24.6075 24.06 24.2775 26.37 23.9375 28.75 C21.9575 28.75 19.9775 28.75 17.9375 28.75 C17.6075 31.39 17.2775 34.03 16.9375 36.75 C13.4725 37.245 13.4725 37.245 9.9375 37.75 C9.6075 36.76 9.2775 35.77 8.9375 34.75 C6.99675139 35.02617533 6.99675139 35.02617533 4.9375 35.75 C4.2775 36.74 3.6175 37.73 2.9375 38.75 C0.125 38.6875 0.125 38.6875 -3.0625 37.75 C-4.5625 34.25 -4.5625 34.25 -6.0625 30.75 C-9.14619887 29.69250443 -9.14619887 29.69250443 -12.0625 29.75 C-12.3925 27.44 -12.7225 25.13 -13.0625 22.75 C-12.0725 22.42 -11.0825 22.09 -10.0625 21.75 C-10.0625 20.43 -10.0625 19.11 -10.0625 17.75 C-11.3825 17.09 -12.7025 16.43 -14.0625 15.75 C-13.3125 11 -13.3125 11 -11.0625 8.75 C-8.4375 8.125 -8.4375 8.125 -6.0625 7.75 C-5.9078125 6.326875 -5.9078125 6.326875 -5.75 4.875 C-4.96573207 1.31014577 -3.9473899 -0.4784715 0 0 Z M-2.0625 13.75 C-3.63185594 16.88871188 -3.41451103 19.28855822 -3.0625 22.75 C-0.78121506 25.74826021 0.90402412 27.36244655 4.4375 28.6875 C8.39965145 28.78655379 10.8584992 27.75458696 13.75 25.0625 C15.45583914 21.74060274 15.39002566 19.43485182 14.9375 15.75 C13.14187595 12.99670979 11.88495078 11.22372539 8.9375 9.75 C3.82230995 9.18164555 1.60908417 10.18331824 -2.0625 13.75 Z " fill="#E2E0E1" transform="translate(55.0625,87.25)"/>
<path d="M0 0 C1.9375 0.75 1.9375 0.75 3.9375 2.75 C5.2575 2.75 6.5775 2.75 7.9375 2.75 C8.2675 1.76 8.5975 0.77 8.9375 -0.25 C10.9175 -0.25 12.8975 -0.25 14.9375 -0.25 C15.5975 2.39 16.2575 5.03 16.9375 7.75 C15.2875 7.75 13.6375 7.75 11.9375 7.75 C12.4325 8.20375 12.9275 8.6575 13.4375 9.125 C14.9375 10.75 14.9375 10.75 14.9375 12.75 C15.5975 13.08 16.2575 13.41 16.9375 13.75 C16.6075 16.06 16.2775 18.37 15.9375 20.75 C15.6075 20.75 15.2775 20.75 14.9375 20.75 C14.69 19.656875 14.4425 18.56375 14.1875 17.4375 C13.23277538 13.81947185 13.23277538 13.81947185 11.1875 11.8125 C8.12165355 10.36473918 6.29352584 10.20207741 2.9375 10.75 C-0.47542944 13.3286578 -1.85040219 14.88529354 -2.875 19.0625 C-2.936875 19.949375 -2.99875 20.83625 -3.0625 21.75 C-3.3925 20.43 -3.7225 19.11 -4.0625 17.75 C-5.7125 17.75 -7.3625 17.75 -9.0625 17.75 C-9.0625 19.4 -9.0625 21.05 -9.0625 22.75 C-10.0525 22.42 -11.0425 22.09 -12.0625 21.75 C-11.4025 21.75 -10.7425 21.75 -10.0625 21.75 C-10.0625 20.43 -10.0625 19.11 -10.0625 17.75 C-11.3825 17.09 -12.7025 16.43 -14.0625 15.75 C-13.3125 11 -13.3125 11 -11.0625 8.75 C-8.4375 8.125 -8.4375 8.125 -6.0625 7.75 C-5.9078125 6.326875 -5.9078125 6.326875 -5.75 4.875 C-4.96573207 1.31014577 -3.9473899 -0.4784715 0 0 Z " fill="#DBDADB" transform="translate(55.0625,87.25)"/>
<path d="M0 0 C1.32 0.33 2.64 0.66 4 1 C4 1.66 4 2.32 4 3 C2.7934375 4.11375 2.7934375 4.11375 1.5625 5.25 C-1.28712024 8.30812904 -1.71472089 9.91099938 -2 14 C-2.33 12.68 -2.66 11.36 -3 10 C-4.65 10 -6.3 10 -8 10 C-8 11.65 -8 13.3 -8 15 C-8.99 14.67 -9.98 14.34 -11 14 C-10.34 14 -9.68 14 -9 14 C-9 12.68 -9 11.36 -9 10 C-10.32 9.34 -11.64 8.68 -13 8 C-12.25 3.25 -12.25 3.25 -10 1 C-7.5 0.6875 -7.5 0.6875 -5 1 C-4.34 1.99 -3.68 2.98 -3 4 C-2.01 2.68 -1.02 1.36 0 0 Z " fill="#D1CFD0" transform="translate(54,95)"/>
<path d="M0 0 C1.95917659 0.0868748 3.91741871 0.19504512 5.875 0.3125 C7.51082031 0.39951172 7.51082031 0.39951172 9.1796875 0.48828125 C10.11039063 0.65714844 11.04109375 0.82601562 12 1 C14 4 14 4 13.625 6.6875 C13.41875 7.450625 13.2125 8.21375 13 9 C12.01 9 11.02 9 10 9 C10 9.66 10 10.32 10 11 C9.34 11 8.68 11 8 11 C7.34 12.65 6.68 14.3 6 16 C5.67 16 5.34 16 5 16 C5.01740234 15.07767578 5.01740234 15.07767578 5.03515625 14.13671875 C5.04417969 13.32847656 5.05320312 12.52023438 5.0625 11.6875 C5.07410156 10.88699219 5.08570312 10.08648437 5.09765625 9.26171875 C5.09657855 6.83138666 5.09657855 6.83138666 4 4 C1.99983534 2.79117904 1.99983534 2.79117904 0 2 C0 1.34 0 0.68 0 0 Z " fill="#E5E4E4" transform="translate(66,94)"/>
<path d="M0 0 C1.65 0 3.3 0 5 0 C6.18198059 2.50301771 7.0172568 4.39601183 6.9375 7.1875 C6 9 6 9 3.4375 10.25 C2.633125 10.4975 1.82875 10.745 1 11 C1 11.66 1 12.32 1 13 C-0.32 12.67 -1.64 12.34 -3 12 C-3.33 9.69 -3.66 7.38 -4 5 C-2.68 5 -1.36 5 0 5 C0 3.35 0 1.7 0 0 Z " fill="#EAE8E9" transform="translate(46,105)"/>
<path d="M0 0 C-4.79300133 1.39151652 -9.15135782 0.68662689 -14 0 C-14 -0.33 -14 -0.66 -14 -1 C-12.41870971 -1.22331199 -10.83478911 -1.42804644 -9.25 -1.625 C-8.36828125 -1.74101563 -7.4865625 -1.85703125 -6.578125 -1.9765625 C-3.77140122 -2.00207817 -2.36615134 -1.44843844 0 0 Z " fill="#949494" transform="translate(109,53)"/>
<path d="M0 0 C1.485 0.99 1.485 0.99 3 2 C2.34 3.65 1.68 5.3 1 7 C0.67 7 0.34 7 0 7 C0 4.69 0 2.38 0 0 Z M3 0 C3.66 0 4.32 0 5 0 C5 0.66 5 1.32 5 2 C4.34 2 3.68 2 3 2 C3 1.34 3 0.68 3 0 Z " fill="#FDFCFD" transform="translate(71,103)"/>
<path d="" fill="#000000" transform="translate(0,0)"/>
</svg>
