<?xml version="1.0" encoding="UTF-8"?>
<svg version="1.1" xmlns="http://www.w3.org/2000/svg" width="500" height="500">
<path d="M0 0 C1.75257045 -0.00445668 1.75257045 -0.00445668 3.54054636 -0.0090034 C6.76158269 -0.01614289 9.98258636 -0.01885952 13.20362937 -0.01960087 C16.68643333 -0.02146219 20.16922598 -0.02901484 23.65202332 -0.03573608 C31.25769243 -0.04927618 38.86335623 -0.05533734 46.46903539 -0.05974674 C51.22497814 -0.06251645 55.98091888 -0.0667551 60.73686028 -0.07125092 C73.92470325 -0.08343784 87.11254462 -0.09373835 100.3003931 -0.09712601 C101.14325645 -0.09734557 101.9861198 -0.09756514 102.85452446 -0.09779136 C104.12170919 -0.09811878 104.12170919 -0.09811878 105.41449362 -0.09845281 C107.12613682 -0.09889626 108.83778002 -0.09934282 110.54942322 -0.09979248 C111.39844318 -0.10001391 112.24746314 -0.10023534 113.12221097 -0.10046348 C126.86838932 -0.10440853 140.61451457 -0.12185618 154.36067242 -0.145152 C168.49975187 -0.16891878 182.63880472 -0.18133027 196.77790445 -0.18249393 C204.70593979 -0.18340769 212.63390591 -0.18908429 220.56192207 -0.20731354 C227.31466423 -0.22278661 234.06731576 -0.2277928 240.8200723 -0.21957543 C244.25906285 -0.21569427 247.6978713 -0.21647278 251.13683891 -0.23063278 C275.44145048 -0.31372107 295.55789864 0.50745619 314.12974548 18.14044189 C323.6777125 28.26597969 328.1854813 40.50593443 328.50474548 54.26544189 C328.53092957 54.94695312 328.55711365 55.62846436 328.58409119 56.33062744 C328.60081015 61.41628928 327.28303432 64.21634913 324.12974548 68.14044189 C320.29330617 71.52553541 316.4954224 71.65677087 311.56724548 71.48809814 C307.88107905 70.96234684 305.839906 69.65229798 303.12974548 67.14044189 C300.31791449 63.22396301 299.82462206 59.44070464 299.19224548 54.76544189 C297.81101112 45.10776355 294.83062712 40.26737225 287.54380798 33.80450439 C281.22387733 29.44804734 274.62250911 29.8504691 267.23820496 29.86628723 C266.03140257 29.86105055 264.82460018 29.85581387 263.58122802 29.85041851 C260.23915707 29.83802305 256.89729667 29.83457466 253.55521727 29.83501542 C249.94771631 29.83336465 246.34025344 29.82029334 242.73277283 29.80882263 C234.84841115 29.78599398 226.96407642 29.7780544 219.07968616 29.77299619 C214.15445112 29.76973684 209.22922386 29.76321294 204.30399323 29.7559948 C190.66075009 29.73643206 177.0175142 29.7200258 163.37425613 29.71711826 C162.50156955 29.71693069 161.62888297 29.71674312 160.72975133 29.71654987 C158.96069574 29.71618363 157.19164015 29.71581993 155.42258456 29.71545876 C154.54445353 29.71527595 153.66632249 29.71509314 152.76158142 29.71490479 C151.88237556 29.71472424 151.0031697 29.71454369 150.09732124 29.71435767 C135.85216616 29.71081628 121.60716227 29.68379466 107.36205962 29.6464069 C92.7281527 29.60830678 78.09432077 29.58896066 63.46036315 29.58865875 C55.24738235 29.58807458 47.03458195 29.57960877 38.82164764 29.55066109 C31.82816746 29.52612442 24.83493348 29.51887967 17.84142187 29.53390861 C14.2754919 29.54106816 10.71004787 29.54026223 7.14417267 29.51749802 C3.27230774 29.49301793 -0.59886759 29.50757067 -4.47077942 29.52571106 C-5.58927898 29.51251109 -6.70777854 29.49931112 -7.86017203 29.48571116 C-15.95107226 29.57214921 -22.59152115 31.38405034 -28.77938116 36.81650501 C-37.09594067 45.38099591 -36.30344583 56.785043 -36.25843811 67.90020752 C-36.26250845 69.59134764 -36.26785292 71.28248509 -36.27436829 72.97361755 C-36.2879927 77.54592402 -36.28276345 82.11802639 -36.27323103 86.69033623 C-36.2656091 91.48673914 -36.27268706 96.28312517 -36.27738953 101.07952881 C-36.28283971 109.13257976 -36.27567482 117.18554804 -36.2613678 125.23858643 C-36.24504271 134.53459184 -36.25033174 143.83039983 -36.26684701 153.12640047 C-36.2804829 161.12327651 -36.28237127 169.1200933 -36.27453101 177.11697721 C-36.26986604 181.8863724 -36.26919718 186.65567494 -36.27914047 191.42506409 C-36.2878385 195.91002406 -36.28173664 200.39473072 -36.2644577 204.87966347 C-36.26050797 206.52069492 -36.26160084 208.16174787 -36.2682457 209.80277061 C-36.49257579 224.61699701 -36.49257579 224.61699701 -29.74525452 237.45294189 C-29.22705139 238.06782471 -28.70884827 238.68270752 -28.17494202 239.31622314 C-21.66380194 244.46995605 -14.99183726 245.72894293 -6.87559509 245.63923645 C-5.90912587 245.644621 -4.94265665 245.65000556 -3.94690049 245.65555328 C-0.72951972 245.66875877 2.48708913 245.6537145 5.70445251 245.63873291 C8.01951954 245.64255831 10.33458419 245.64817923 12.64964294 245.65545654 C17.62436344 245.66738938 22.5988728 245.66693147 27.57359695 245.65686226 C35.43987355 245.64128459 43.30593378 245.6549907 51.17219543 245.67289734 C62.19955834 245.6957289 73.22687126 245.70564283 84.2542572 245.70465088 C84.9531166 245.70459256 85.651976 245.70453423 86.37201296 245.70447414 C89.2037518 245.70420829 92.03549064 245.703891 94.86722947 245.70351088 C102.66681223 245.70254409 110.46639365 245.70387353 118.26597595 245.706604 C119.31388889 245.70696384 119.31388889 245.70696384 120.38297178 245.70733095 C132.03713057 245.71173955 143.69124679 245.72806824 155.34538162 245.7518248 C163.16531374 245.76676489 170.98505402 245.76648372 178.8049891 245.75434697 C183.66731841 245.74963933 188.52957413 245.75715051 193.39189148 245.76789093 C195.64653959 245.7702988 197.90119998 245.76755567 200.1558342 245.75928307 C203.23376855 245.74866476 206.31113722 245.75641144 209.38905334 245.76863098 C210.28078817 245.76105493 211.17252301 245.75347887 212.0912801 245.74567324 C218.96243343 245.8035052 223.68361289 247.01337007 229.00474548 251.64044189 C231.56389296 254.65120363 232.06606951 256.4782118 232.44224548 260.39044189 C232.04082817 265.2074497 230.92849628 267.20706239 228.12974548 271.14044189 C224.0019853 274.23626203 220.16227738 275.26389749 215.06625462 275.26907635 C213.85933739 275.27391302 213.85933739 275.27391302 212.62803799 275.2788474 C211.74974786 275.27729879 210.87145772 275.27575019 209.96655273 275.27415466 C209.0290068 275.27642022 208.09146086 275.27868578 207.12550443 275.28101999 C203.97594539 275.28736275 200.82642936 275.28653042 197.67686462 275.28570557 C195.42153365 275.28869702 193.16620319 275.29209952 190.91087341 275.29588318 C184.7761328 275.30473211 178.64140613 275.30706176 172.50665975 275.30769897 C168.67190293 275.30840935 164.83714966 275.31054351 161.00239372 275.31319618 C148.30890821 275.32197673 135.61543289 275.32661552 122.92194516 275.32586571 C121.89546672 275.32580577 121.89546672 275.32580577 120.84825134 275.32574463 C120.16309137 275.32570375 119.4779314 275.32566287 118.77200901 275.32562075 C107.68770488 275.32521499 96.60343483 275.33476598 85.51914055 275.348883 C74.12503181 275.36327935 62.73094655 275.36996857 51.33682722 275.36928922 C44.94528043 275.36903471 38.55377215 275.37185947 32.16223335 275.38246727 C26.14336655 275.39218295 20.12457478 275.39220366 14.10570526 275.38495064 C11.90357033 275.38390887 9.70143064 275.3862433 7.49930382 275.3923111 C-14.17996049 275.44814788 -33.36216568 274.06637778 -49.99525452 258.45294189 C-65.84687846 241.84347139 -66.02360281 223.07512238 -66.01551819 201.41143799 C-66.0185185 199.78354313 -66.021923 198.15564898 -66.0256958 196.52775574 C-66.03444641 192.14981563 -66.03686996 187.77189513 -66.03751159 183.39394712 C-66.03822663 180.65097193 -66.04036936 177.90800159 -66.0430088 175.16502762 C-66.05222913 165.57447243 -66.05634743 155.98393105 -66.05555725 146.39337158 C-66.05495576 137.48533312 -66.06553014 128.57735508 -66.08130091 119.66933191 C-66.0944086 111.98909262 -66.09973987 104.30887303 -66.09910184 96.62862265 C-66.09884802 92.05539605 -66.10163558 87.48222337 -66.11227989 82.90900803 C-66.12201676 78.6095276 -66.12200207 74.3101521 -66.11476326 70.0106678 C-66.11372469 68.44183891 -66.11603659 66.87300329 -66.12212372 65.30418587 C-66.19040032 46.47478417 -63.72460681 31.2737272 -50.18275452 17.32012939 C-35.48179515 3.46348189 -19.64245952 -0.01576535 0 0 Z " fill="#FCFCFC" transform="translate(109.87025451660156,66.85955810546875)"/>
<path d="M0 0 C20.2669815 -0.77690096 37.99649128 7.0888188 53.0546875 20.12890625 C66.49006223 32.68917994 73.50583899 50.59187941 74.18603516 68.74682617 C74.48097308 89.37707392 67.06097674 107.30927943 52.765625 122.26953125 C43.86160696 130.77781515 29.46593724 140.16015625 16.78125 140.16015625 C16.78125 167.88015625 16.78125 195.60015625 16.78125 224.16015625 C29.65125 224.16015625 42.52125 224.16015625 55.78125 224.16015625 C64.24187992 228.99480192 64.24187992 228.99480192 65.78125 233.16015625 C66.45369329 238.1782643 66.33705467 241.98441561 64.15625 246.59765625 C61.14035633 249.85164679 58.24865838 251.84806846 53.74029541 252.41830444 C51.37555861 252.50609555 49.02999464 252.49768566 46.6640625 252.453125 C45.80690643 252.44888016 44.94975037 252.44463531 44.06661987 252.44026184 C41.34616836 252.42355511 38.62647518 252.38591844 35.90625 252.34765625 C34.05469825 252.33259903 32.20313481 252.31891245 30.3515625 252.30664062 C25.82783567 252.2736779 21.30467113 252.22195162 16.78125 252.16015625 C16.79696045 253.27986816 16.8126709 254.39958008 16.82885742 255.55322266 C16.88332894 259.72404736 16.91766252 263.89484087 16.94604492 268.06591797 C16.9610924 269.86805517 16.9815353 271.67015598 17.00756836 273.47216797 C17.04413021 276.06877646 17.06101681 278.664899 17.07421875 281.26171875 C17.08970261 282.06195465 17.10518646 282.86219055 17.12113953 283.68667603 C17.12259164 288.55925762 16.56682053 291.97752249 13.78125 296.16015625 C12.79125 296.49015625 11.80125 296.82015625 10.78125 297.16015625 C10.78125 297.82015625 10.78125 298.48015625 10.78125 299.16015625 C5.58670679 301.42444431 1.20325371 301.56067381 -4.21875 300.16015625 C-7.50985633 298.05945008 -9.0521353 296.4100783 -11.21875 293.16015625 C-11.46484566 290.40155506 -11.46484566 290.40155506 -11.45925903 286.99092102 C-11.46200836 285.69943146 -11.46475769 284.40794189 -11.46759033 283.07731628 C-11.460512 281.643096 -11.45324238 280.20887665 -11.44580078 278.7746582 C-11.44523673 277.26684578 -11.4455531 275.75903281 -11.44668579 274.2512207 C-11.44726056 270.15437363 -11.43548616 266.05764322 -11.42153788 261.9608233 C-11.40905123 257.68069055 -11.40786165 253.40055525 -11.40548706 249.1204071 C-11.39926621 241.01376625 -11.38284721 232.90717922 -11.36278808 224.80056208 C-11.3404479 215.57213877 -11.32944039 206.34371292 -11.31939721 197.1152693 C-11.29848151 178.13020108 -11.26329378 159.14518299 -11.21875 140.16015625 C-12.30897461 140.01465332 -13.39919922 139.86915039 -14.52246094 139.71923828 C-30.19562922 137.34859394 -45.406568 127.28024027 -54.74316406 114.62353516 C-66.70022423 97.65173817 -72.04913804 78.59144509 -68.59765625 57.98046875 C-64.76765896 39.0546996 -53.24701461 21.9132958 -37.21875 11.16015625 C-25.5097711 4.45919581 -13.39579033 0.96694965 0 0 Z M-25.7578125 38.203125 C-33.85087459 45.84957998 -39.86713386 54.9770224 -40.58984375 66.32421875 C-40.95588262 79.41120207 -38.90384554 89.70253092 -29.90625 99.66015625 C-21.68070886 108.24016367 -12.3951607 113.41436216 -0.33178711 113.6796875 C0.44801514 113.67324219 1.22781738 113.66679687 2.03125 113.66015625 C2.85681396 113.65371094 3.68237793 113.64726562 4.53295898 113.640625 C16.44776097 113.28831493 26.47588159 108.75745325 34.78125 100.16015625 C42.65296374 90.08614831 46.44730122 79.25228015 45.6015625 66.4375 C43.84066391 53.94949471 37.58431397 43.96372842 27.78125 36.16015625 C11.19907592 25.0900622 -10.14224348 25.63859793 -25.7578125 38.203125 Z " fill="#FCFCFB" transform="translate(383.21875,155.83984375)"/>
<path d="M0 0 C5.53613247 3.19453044 9.72316683 7.48099833 14.1796875 12.01953125 C14.95128204 12.79632736 15.72287659 13.57312347 16.51785278 14.37345886 C18.97506284 16.84840911 21.42547189 19.32994834 23.875 21.8125 C26.31821866 24.283488 28.76293744 26.75294267 31.21072388 29.21940613 C32.7295888 30.75036352 34.24577545 32.28398458 35.75875854 33.820755 C39.76337656 37.86269421 43.85773962 41.72233577 48.18069458 45.42289734 C54.3796727 50.79661017 60.28697486 56.00882399 61.5 64.5 C60.31707911 72.78044624 54.49392196 77.91590891 48.75 83.5 C48.02425781 84.22058594 47.29851562 84.94117188 46.55078125 85.68359375 C43.2489117 88.93837781 39.91683366 92.10474109 36.37890625 95.1015625 C28.88774547 101.56590327 22.11077515 108.86981972 15.17700195 115.91894531 C13.24083012 117.88520327 11.29857801 119.84528855 9.35546875 121.8046875 C8.46482979 122.7155159 8.46482979 122.7155159 7.55619812 123.64474487 C3.44535763 127.78063166 0.89947271 129.14469047 -4.875 129.25 C-9.10806047 129.18232025 -11.76349236 128.95093344 -15 126 C-18.77109363 120.80200607 -19.81155954 117.39103136 -19 111 C-15.84395323 105.35441972 -11.36358075 101.07368801 -6.8046875 96.5390625 C-6.01603302 95.74849457 -5.22737854 94.95792664 -4.41482544 94.1434021 C-2.75475642 92.48197697 -1.09217855 90.82305529 0.57275391 89.16650391 C3.13027909 86.61974313 5.67689395 84.06241943 8.22265625 81.50390625 C9.83790026 79.88998281 11.45376401 78.27667934 13.0703125 76.6640625 C13.83489777 75.89542877 14.59948303 75.12679504 15.38723755 74.33486938 C16.09492279 73.63348846 16.80260803 72.93210754 17.53173828 72.20947266 C18.15476837 71.58803375 18.77779846 70.96659485 19.41970825 70.32632446 C21 69 21 69 23 69 C23.82788781 66.21330423 23.82788781 66.21330423 24 63 C22.62334315 60.62694602 22.62334315 60.62694602 20.3815918 58.61865234 C19.56712082 57.81116547 18.75264984 57.00367859 17.91349792 56.17172241 C17.0177858 55.31841339 16.12207367 54.46510437 15.19921875 53.5859375 C14.29250931 52.69387604 13.38579987 51.80181458 12.45161438 50.88272095 C10.03930481 48.51399446 7.6135977 46.16101211 5.17919922 43.81512451 C1.7547239 40.50904861 -1.64518218 37.17778319 -5.04447937 33.84585571 C-6.85518166 32.07383598 -8.67240066 30.30844615 -10.49665833 28.55038452 C-11.32058578 27.74920197 -12.14451324 26.94801941 -12.9934082 26.12255859 C-13.72034378 25.42117767 -14.44727936 24.71979675 -15.19624329 23.99716187 C-18.57512551 20.25598398 -19.45909388 17.1924546 -19.31640625 12.09375 C-18.62085779 7.49110831 -16.30628718 4.19102655 -12.875 1.0625 C-8.62843887 -0.50688129 -4.45651599 -0.85109403 0 0 Z " fill="#FBFBFB" transform="translate(139,140)"/>
<path d="M0 0 C0.94132782 -0.00960754 1.88265564 -0.01921509 2.85250854 -0.02911377 C3.86298248 -0.03336365 4.87345642 -0.03761353 5.91455078 -0.04199219 C7.48283127 -0.0505423 7.48283127 -0.0505423 9.08279419 -0.05926514 C11.29346711 -0.06870515 13.50415404 -0.07524515 15.71484375 -0.07910156 C19.09025678 -0.08881079 22.46506174 -0.11984562 25.84033203 -0.15136719 C27.99006801 -0.15789726 30.13980833 -0.16314771 32.28955078 -0.16699219 C33.799189 -0.18551239 33.799189 -0.18551239 35.33932495 -0.20440674 C42.46086768 -0.18185321 46.84669564 0.77296517 52.04736328 5.97363281 C55.184893 10.54546183 55.52912999 13.29744364 54.67236328 18.72363281 C52.68826284 23.46822083 49.8812536 25.83793765 45.23486328 28.16113281 C43.57180466 28.27177014 41.90443207 28.32028196 40.23779297 28.33813477 C39.19621033 28.35097 38.15462769 28.36380524 37.08148193 28.37702942 C35.95131653 28.38441635 34.82115112 28.39180328 33.65673828 28.39941406 C32.49740784 28.40748581 31.33807739 28.41555756 30.14361572 28.4238739 C27.68560282 28.43772416 25.22757061 28.44844208 22.76953125 28.45629883 C19.01411342 28.47349885 15.25957859 28.51737672 11.50439453 28.56152344 C9.11768226 28.57165123 6.7309625 28.58016706 4.34423828 28.58691406 C3.2221698 28.60442215 2.10010132 28.62193024 0.94403076 28.63996887 C-5.2631757 28.62274277 -9.0909026 28.40942565 -13.76513672 24.16113281 C-16.81203842 19.69234364 -17.72519508 15.44672886 -16.76513672 10.16113281 C-14.44717513 5.77356266 -11.83064154 2.10761824 -6.93795776 0.59698486 C-4.57625172 0.12324386 -2.40854591 0.01991626 0 0 Z " fill="#FBFAFA" transform="translate(219.76513671875,240.8388671875)"/>
</svg>
